<svg width="17" height="17" viewBox="0 0 17 17" fill="none" xmlns="http://www.w3.org/2000/svg">
<path d="M4.90456 15.4652H11.8912C13.7312 15.4652 14.4646 14.3385 14.5512 12.9652L14.8979 7.4585C14.9912 6.0185 13.8446 4.7985 12.3979 4.7985C11.9912 4.7985 11.6179 4.56517 11.4312 4.20517L10.9512 3.2385C10.6446 2.63184 9.84456 2.13184 9.16456 2.13184H7.6379C6.95123 2.13184 6.15123 2.63184 5.84456 3.2385L5.36456 4.20517C5.1779 4.56517 4.80456 4.7985 4.3979 4.7985C2.95123 4.7985 1.80456 6.0185 1.8979 7.4585L2.24456 12.9652C2.32456 14.3385 3.06456 15.4652 4.90456 15.4652Z" stroke="white" stroke-width="1.075" stroke-linecap="round" stroke-linejoin="round"/>
<path d="M7.39844 6.13184H9.39844" stroke="white" stroke-width="1.075" stroke-linecap="round" stroke-linejoin="round"/>
<path d="M8.39714 12.7982C9.59047 12.7982 10.5638 11.8248 10.5638 10.6315C10.5638 9.43818 9.59047 8.46484 8.39714 8.46484C7.2038 8.46484 6.23047 9.43818 6.23047 10.6315C6.23047 11.8248 7.2038 12.7982 8.39714 12.7982Z" stroke="white" stroke-width="1.075" stroke-linecap="round" stroke-linejoin="round"/>
</svg>
