<svg width="20" height="19" viewBox="0 0 20 19" fill="none" xmlns="http://www.w3.org/2000/svg">
<path d="M10.1897 8.459C10.1169 8.45172 10.0295 8.45172 9.94937 8.459C8.21619 8.40075 6.83984 6.98079 6.83984 5.23314C6.83984 3.44909 8.28173 2 10.0732 2C11.8573 2 13.3065 3.44909 13.3065 5.23314C13.2992 6.98079 11.9229 8.40075 10.1897 8.459Z" stroke="white" stroke-linecap="round" stroke-linejoin="round"/>
<path d="M15.4697 3.4563C16.8824 3.4563 18.0185 4.59955 18.0185 6.00495C18.0185 7.38122 16.9261 8.50262 15.5643 8.5536C15.5061 8.54631 15.4405 8.54631 15.375 8.5536" stroke="white" stroke-linecap="round" stroke-linejoin="round"/>
<path d="M6.54829 11.1459C4.78599 12.3256 4.78599 14.248 6.54829 15.4204C8.55092 16.7602 11.8352 16.7602 13.8378 15.4204C15.6001 14.2407 15.6001 12.3183 13.8378 11.1459C11.8425 9.81334 8.5582 9.81334 6.54829 11.1459Z" stroke="white" stroke-linecap="round" stroke-linejoin="round"/>
<path d="M16.875 15.1074C17.3993 14.9982 17.8945 14.787 18.3023 14.4739C19.4384 13.6219 19.4384 12.2165 18.3023 11.3645C17.9018 11.0587 17.4139 10.8548 16.8968 10.7383" stroke="white" stroke-linecap="round" stroke-linejoin="round"/>
<path d="M4.68072 3.4563C3.26796 3.4563 2.13193 4.59955 2.13193 6.00495C2.13193 7.38122 3.22427 8.50262 4.58605 8.5536C4.64431 8.54631 4.70985 8.54631 4.77539 8.5536" stroke="white" stroke-linecap="round" stroke-linejoin="round"/>
<path d="M3.27539 15.1074C2.75107 14.9982 2.25587 14.787 1.84807 14.4739C0.712034 13.6219 0.712034 12.2165 1.84807 11.3645C2.24859 11.0587 2.7365 10.8548 3.25354 10.7383" stroke="white" stroke-linecap="round" stroke-linejoin="round"/>
</svg>
