<svg width="20" height="20" viewBox="0 0 20 20" fill="none" xmlns="http://www.w3.org/2000/svg">
<path d="M10.1897 9.45949C10.1169 9.45221 10.0295 9.45221 9.94937 9.45949C8.21619 9.40124 6.83984 7.98127 6.83984 6.23363C6.83984 4.44958 8.28173 3.00049 10.0732 3.00049C11.8573 3.00049 13.3065 4.44958 13.3065 6.23363C13.2992 7.98127 11.9229 9.40124 10.1897 9.45949Z" stroke="#EC8C6F" stroke-linecap="round" stroke-linejoin="round"/>
<path d="M15.4697 4.45703C16.8824 4.45703 18.0185 5.60028 18.0185 7.00568C18.0185 8.38195 16.9261 9.50335 15.5643 9.55433C15.5061 9.54705 15.4405 9.54705 15.375 9.55433" stroke="#EC8C6F" stroke-linecap="round" stroke-linejoin="round"/>
<path d="M6.54829 12.1464C4.78599 13.3261 4.78599 15.2485 6.54829 16.4209C8.55092 17.7607 11.8352 17.7607 13.8378 16.4209C15.6001 15.2412 15.6001 13.3188 13.8378 12.1464C11.8425 10.8138 8.5582 10.8138 6.54829 12.1464Z" stroke="#EC8C6F" stroke-linecap="round" stroke-linejoin="round"/>
<path d="M16.875 16.1079C17.3993 15.9987 17.8945 15.7875 18.3023 15.4744C19.4384 14.6224 19.4384 13.217 18.3023 12.365C17.9018 12.0592 17.4139 11.8553 16.8968 11.7388" stroke="#EC8C6F" stroke-linecap="round" stroke-linejoin="round"/>
<path d="M4.68072 4.45703C3.26796 4.45703 2.13193 5.60028 2.13193 7.00568C2.13193 8.38195 3.22427 9.50335 4.58605 9.55433C4.64431 9.54705 4.70985 9.54705 4.77539 9.55433" stroke="#EC8C6F" stroke-linecap="round" stroke-linejoin="round"/>
<path d="M3.27539 16.1079C2.75107 15.9987 2.25587 15.7875 1.84807 15.4744C0.712034 14.6224 0.712034 13.217 1.84807 12.365C2.24859 12.0592 2.7365 11.8553 3.25354 11.7388" stroke="#EC8C6F" stroke-linecap="round" stroke-linejoin="round"/>
</svg>
