<svg width="20" height="20" viewBox="0 0 20 20" fill="none" xmlns="http://www.w3.org/2000/svg">
<path d="M14.166 8.33341H15.8327C17.4993 8.33341 18.3327 7.50008 18.3327 5.83341V4.16675C18.3327 2.50008 17.4993 1.66675 15.8327 1.66675H14.166C12.4993 1.66675 11.666 2.50008 11.666 4.16675V5.83341C11.666 7.50008 12.4993 8.33341 14.166 8.33341Z" stroke="#EC8C6F" stroke-width="1.5" stroke-miterlimit="10" stroke-linecap="round" stroke-linejoin="round"/>
<path d="M4.16602 18.3334H5.83268C7.49935 18.3334 8.33268 17.5001 8.33268 15.8334V14.1667C8.33268 12.5001 7.49935 11.6667 5.83268 11.6667H4.16602C2.49935 11.6667 1.66602 12.5001 1.66602 14.1667V15.8334C1.66602 17.5001 2.49935 18.3334 4.16602 18.3334Z" stroke="#EC8C6F" stroke-width="1.5" stroke-miterlimit="10" stroke-linecap="round" stroke-linejoin="round"/>
<path d="M4.99935 8.33341C6.8403 8.33341 8.33268 6.84103 8.33268 5.00008C8.33268 3.15913 6.8403 1.66675 4.99935 1.66675C3.1584 1.66675 1.66602 3.15913 1.66602 5.00008C1.66602 6.84103 3.1584 8.33341 4.99935 8.33341Z" stroke="#EC8C6F" stroke-width="1.5" stroke-miterlimit="10" stroke-linecap="round" stroke-linejoin="round"/>
<path d="M14.9993 18.3334C16.8403 18.3334 18.3327 16.841 18.3327 15.0001C18.3327 13.1591 16.8403 11.6667 14.9993 11.6667C13.1584 11.6667 11.666 13.1591 11.666 15.0001C11.666 16.841 13.1584 18.3334 14.9993 18.3334Z" stroke="#EC8C6F" stroke-width="1.5" stroke-miterlimit="10" stroke-linecap="round" stroke-linejoin="round"/>
</svg>
