<svg width="454" height="112" viewBox="0 0 454 112" fill="none" xmlns="http://www.w3.org/2000/svg">
<rect width="454" height="112" fill="#FFF0EB"/>
<path d="M62.2193 33.3139C61.2948 34.5377 60.4499 35.6797 59.6649 36.7604L57.6237 36.2105C57.8989 35.87 58.1399 35.555 58.3051 35.3462C58.4266 35.1912 58.4431 35.0013 58.3413 34.9244L57.4375 34.2417C57.3366 34.1655 57.1575 34.2325 57.0417 34.3917C56.8127 34.7068 56.3979 35.2241 56.008 35.7779L54.6312 35.4087C54.9486 35.0202 55.2307 34.6547 55.4146 34.4192C55.5361 34.2643 55.5517 34.0755 55.45 33.9986L54.5462 33.3158C54.4453 33.2396 54.268 33.3062 54.1522 33.4655C53.9044 33.8054 53.4478 34.3781 53.0329 34.9787L52.0509 34.7161L48.8841 33.8661C48.7162 33.8014 48.5082 33.875 48.381 34.0434L47.279 35.5022C47.1159 35.718 47.1449 36.0061 47.3436 36.1207L56.3975 41.4021C54.6073 44.0467 53.3446 46.1119 52.4563 47.7109L48.4975 47.5157C48.4276 47.5054 48.3207 47.5738 48.237 47.6845L47.5174 48.6371C47.4107 48.7784 47.3841 48.9322 47.459 48.9675L50.9919 50.6425C50.7603 51.1863 50.6091 51.6081 50.5135 51.9264C49.6721 52.9591 49.0405 53.9001 49.3287 54.1178C49.6189 54.337 50.3538 53.467 51.118 52.3724C51.3971 52.1928 51.7597 51.9324 52.2161 51.5637L53.6934 53.2477L54.8015 54.5125C54.8559 54.575 54.9966 54.5074 55.1033 54.3661L55.823 53.4135C55.9066 53.3028 55.944 53.1801 55.9142 53.1168L54.639 49.3474C55.9353 48.0567 57.5777 46.2783 59.6289 43.838L63.8331 47.8819L67.1886 51.109C67.3532 51.2689 67.6382 51.218 67.8021 51.001L68.9042 49.5422C69.0305 49.3749 69.0445 49.1547 68.9373 49.0099L66.7331 45.3249C67.1965 44.7609 67.6217 44.1645 67.8819 43.8339C68.0034 43.679 68.019 43.4903 67.9181 43.4141L67.0144 42.7313C66.9135 42.6551 66.7352 42.721 66.6204 42.8809C66.4441 43.1223 66.1696 43.4935 65.8826 43.905L65.1512 42.6816C65.5773 42.1551 65.9598 41.6152 66.2011 41.3076C66.3226 41.1527 66.3391 40.9628 66.2382 40.8866L65.3345 40.2038C65.2336 40.1277 65.0545 40.1947 64.9387 40.3539C64.782 40.5692 64.5458 40.8878 64.2935 41.2456L63.2036 39.4265C64.0405 38.3602 64.9201 37.2196 65.8574 35.9789C69.0705 31.7256 67.7366 29.7489 67.7366 29.7489C67.7366 29.7489 65.4316 29.0636 62.2193 33.3139Z" fill="#EC8C6F" fill-opacity="0.3"/>
<path d="M-6 79.9446C-3.08304 78 15.3911 84.077 46.0192 57.5812" stroke="#FADDD4" stroke-width="0.486161" stroke-dasharray="1.94 1.94"/>
</svg>
