<svg width="20" height="20" viewBox="0 0 20 20" fill="none" xmlns="http://www.w3.org/2000/svg">
<path d="M9.16602 1.6665H7.49935C3.33268 1.6665 1.66602 3.33317 1.66602 7.49984V12.4998C1.66602 16.6665 3.33268 18.3332 7.49935 18.3332H12.4993C16.666 18.3332 18.3327 16.6665 18.3327 12.4998V10.8332" stroke="#292D32" stroke-width="1.5" stroke-linecap="round" stroke-linejoin="round"/>
<path d="M13.3675 2.51688L6.80088 9.08354C6.55088 9.33354 6.30088 9.82521 6.25088 10.1835L5.89254 12.6919C5.75921 13.6002 6.40088 14.2335 7.30921 14.1085L9.81754 13.7502C10.1675 13.7002 10.6592 13.4502 10.9175 13.2002L17.4842 6.63354C18.6175 5.50021 19.1509 4.18354 17.4842 2.51688C15.8175 0.850211 14.5009 1.38354 13.3675 2.51688Z" stroke="#292D32" stroke-width="1.5" stroke-miterlimit="10" stroke-linecap="round" stroke-linejoin="round"/>
<path d="M12.4258 3.4585C12.9841 5.45016 14.5424 7.0085 16.5424 7.57516" stroke="#292D32" stroke-width="1.5" stroke-miterlimit="10" stroke-linecap="round" stroke-linejoin="round"/>
</svg>
