<svg width="108" height="108" viewBox="0 0 108 108" fill="none" xmlns="http://www.w3.org/2000/svg">
<path d="M88.7393 0H5.33883C2.39027 0 0 2.39027 0 5.33883V59.1264C0 62.075 2.39027 64.4652 5.33883 64.4652H88.7393C91.6879 64.4652 94.0781 62.075 94.0781 59.1264V5.33883C94.0781 2.39027 91.6879 0 88.7393 0Z" fill="#E57E25"/>
<path d="M91.912 63.326C92.5856 62.8111 93.1313 62.1478 93.5067 61.3876C93.8821 60.6274 94.077 59.7909 94.0764 58.9431V5.52213C94.0764 4.05757 93.4946 2.653 92.459 1.6174C91.4234 0.581795 90.0189 0 88.5543 0L35.1211 0L91.7983 63.2842L91.912 63.326Z" fill="#F29C1F"/>
<path d="M58.9553 0H5.52213C4.05757 0 2.653 0.581795 1.6174 1.6174C0.581796 2.653 1.39568e-06 4.05757 1.39568e-06 5.52213V58.9431C-0.000583813 59.7654 0.182872 60.5774 0.536919 61.3196C0.890966 62.0618 1.40663 62.7153 2.0461 63.2323L2.27813 63.2842L58.9553 0Z" fill="#F29C1F"/>
<path d="M88.556 0H5.52213C4.05757 0 2.653 0.581794 1.6174 1.6174C0.581795 2.653 0 4.05757 0 5.52213L0 7.6448L39.8495 35.104C41.9639 36.5611 44.4712 37.3413 47.0391 37.3413C49.6069 37.3413 52.1142 36.5611 54.2287 35.104L94.0781 7.6448V5.52213C94.0781 4.05757 93.4963 2.653 92.4607 1.6174C91.4251 0.581794 90.0206 0 88.556 0Z" fill="#F0C419"/>
<path d="M24.4939 108C24.1478 108.001 23.81 107.894 23.5263 107.696C23.2427 107.498 23.0268 107.217 22.9081 106.892C22.7893 106.567 22.7734 106.213 22.8625 105.879C22.9516 105.544 23.1414 105.245 23.4061 105.022L46.7333 85.6337C46.9021 85.486 47.0986 85.3734 47.3114 85.3025C47.5242 85.2317 47.749 85.2039 47.9726 85.2209C48.1962 85.2379 48.4142 85.2994 48.6139 85.4016C48.8135 85.5039 48.9907 85.6449 49.1352 85.8164C49.2797 85.9879 49.3886 86.1866 49.4554 86.4007C49.5222 86.6148 49.5457 86.84 49.5245 87.0633C49.5033 87.2866 49.4377 87.5034 49.3318 87.7011C49.2258 87.8987 49.0814 88.0733 48.9072 88.2145L25.5802 107.604C25.2765 107.86 24.8916 108.001 24.4939 108Z" fill="#7ED0FC"/>
<path d="M44.2821 104.327C43.9388 104.327 43.6035 104.223 43.3212 104.027C43.0388 103.832 42.8228 103.555 42.7019 103.234C42.581 102.912 42.5609 102.562 42.6445 102.229C42.728 101.896 42.9111 101.596 43.1694 101.37L48.9115 96.124C49.0781 95.9769 49.272 95.8642 49.4822 95.7923C49.6924 95.7204 49.9147 95.6907 50.1364 95.7049C50.3581 95.7191 50.5749 95.7769 50.7742 95.8751C50.9734 95.9733 51.1514 96.1098 51.2978 96.277C51.4442 96.4441 51.5561 96.6384 51.6272 96.8489C51.6983 97.0594 51.7272 97.2818 51.7121 97.5035C51.697 97.7251 51.6383 97.9416 51.5393 98.1405C51.4404 98.3394 51.3031 98.5168 51.1355 98.6626L45.3944 103.909C45.0869 104.179 44.6914 104.328 44.2821 104.327Z" fill="#35ACEF"/>
<path d="M50.5391 70.948L61.1853 96.4493L80.6352 67.272L107.979 41.218L50.5391 70.948Z" fill="#285680"/>
<path d="M107.979 41.0312L51.8631 73.7639L35.3516 69.4804L107.979 41.0312Z" fill="#7ED0FC"/>
<path d="M88.2189 62.6775L61.1875 96.4496L64.3775 77.1065L88.2189 62.6775Z" fill="#35ACEF"/>
<path d="M107.979 41.2184C107.994 41.1705 108.014 41.134 107.979 41.1695L64.375 77.1064L91.3864 84.4593L107.979 41.2184Z" fill="#7ED0FC"/>
</svg>
