<svg width="48" height="48" viewBox="0 0 48 48" fill="none" xmlns="http://www.w3.org/2000/svg">
<path d="M27.62 32.96C27.24 32.96 26.86 32.82 26.56 32.52L19.48 25.44C18.9 24.86 18.9 23.9 19.48 23.32C20.06 22.74 21.02 22.74 21.6 23.32L28.68 30.4C29.26 30.98 29.26 31.94 28.68 32.52C28.38 32.8 28 32.96 27.62 32.96Z" fill="#EC8C6F"/>
<path d="M20.46 33.04C20.08 33.04 19.7 32.9 19.4 32.6C18.82 32.02 18.82 31.06 19.4 30.48L26.48 23.4C27.06 22.82 28.02 22.82 28.6 23.4C29.18 23.98 29.18 24.94 28.6 25.52L21.52 32.6C21.24 32.88 20.84 33.04 20.46 33.04Z" fill="#EC8C6F"/>
<path d="M34 45.5H14C5.18 45.5 2.5 42.82 2.5 34V14C2.5 5.18 5.18 2.5 14 2.5H17C20.5 2.5 21.6 3.64 23 5.5L26 9.5C26.66 10.38 26.76 10.5 28 10.5H34C42.82 10.5 45.5 13.18 45.5 22V34C45.5 42.82 42.82 45.5 34 45.5ZM14 5.5C6.86 5.5 5.5 6.86 5.5 14V34C5.5 41.14 6.86 42.5 14 42.5H34C41.14 42.5 42.5 41.14 42.5 34V22C42.5 14.86 41.14 13.5 34 13.5H28C25.44 13.5 24.6 12.62 23.6 11.3L20.6 7.3C19.56 5.92 19.26 5.5 17 5.5H14V5.5Z" fill="#EC8C6F"/>
</svg>
