<svg width="20" height="20" viewBox="0 0 20 20" fill="none" xmlns="http://www.w3.org/2000/svg">
<path d="M7.49935 18.3334H12.4993C16.666 18.3334 18.3327 16.6667 18.3327 12.5001V7.50008C18.3327 3.33341 16.666 1.66675 12.4993 1.66675H7.49935C3.33268 1.66675 1.66602 3.33341 1.66602 7.50008V12.5001C1.66602 16.6667 3.33268 18.3334 7.49935 18.3334Z" stroke="white" stroke-width="1.5" stroke-linecap="round" stroke-linejoin="round"/>
<path d="M7.58398 9.99999V8.76666C7.58398 7.17499 8.70898 6.53333 10.084 7.32499L11.1507 7.94166L12.2173 8.55833C13.5923 9.34999 13.5923 10.65 12.2173 11.4417L11.1507 12.0583L10.084 12.675C8.70898 13.4667 7.58398 12.8167 7.58398 11.2333V9.99999Z" stroke="white" stroke-width="1.5" stroke-miterlimit="10" stroke-linecap="round" stroke-linejoin="round"/>
</svg>
