<svg width="20" height="20" viewBox="0 0 20 20" fill="none" xmlns="http://www.w3.org/2000/svg">
<path d="M7.49996 18.3332H12.5C16.6666 18.3332 18.3333 16.6665 18.3333 12.4998V7.49984C18.3333 3.33317 16.6666 1.6665 12.5 1.6665H7.49996C3.33329 1.6665 1.66663 3.33317 1.66663 7.49984V12.4998C1.66663 16.6665 3.33329 18.3332 7.49996 18.3332Z" stroke="#EC8C6F" stroke-width="1.5" stroke-linecap="round" stroke-linejoin="round"/>
<path d="M7.58337 10.0002V8.7669C7.58337 7.17524 8.70837 6.53357 10.0834 7.32524L11.15 7.9419L12.2167 8.55857C13.5917 9.35024 13.5917 10.6502 12.2167 11.4419L11.15 12.0586L10.0834 12.6752C8.70837 13.4669 7.58337 12.8169 7.58337 11.2336V10.0002Z" stroke="#EC8C6F" stroke-width="1.5" stroke-miterlimit="10" stroke-linecap="round" stroke-linejoin="round"/>
</svg>
