<svg width="20" height="20" viewBox="0 0 20 20" fill="none" xmlns="http://www.w3.org/2000/svg">
<g clip-path="url(#clip0_832_22880)">
<path d="M8.53762 18.4851C4.47941 17.791 1.39062 14.2561 1.39062 10C1.39062 5.74391 4.47941 2.20898 8.53762 1.51492M8.53762 1.51492L7.65484 3.0818M8.53762 1.51492L6.99774 0.585938M11.461 1.51492C15.5192 2.20898 18.608 5.74391 18.608 10C18.608 14.2561 15.5192 17.791 11.461 18.4851M11.461 18.4851L12.3438 16.9182M11.461 18.4851L13.0009 19.4141" stroke="black" stroke-miterlimit="10" stroke-linecap="round" stroke-linejoin="round"/>
<path d="M13.0071 8.81852V7.89062C13.0071 6.22945 11.6605 4.88281 9.99934 4.88281C8.33816 4.88281 6.99152 6.22945 6.99152 7.89062V8.81852M9.99934 11.2891V12.0998M12.8937 14.5703H7.105C6.53894 14.5703 6.08008 14.1114 6.08008 13.5454V9.84344C6.08008 9.27738 6.53894 8.81852 7.105 8.81852H12.8937C13.4598 8.81852 13.9186 9.27738 13.9186 9.84344V13.5454C13.9186 14.1114 13.4597 14.5703 12.8937 14.5703Z" stroke="black" stroke-miterlimit="10" stroke-linecap="round" stroke-linejoin="round"/>
</g>
<defs>
<clipPath id="clip0_832_22880">
<rect width="20" height="20" fill="white"/>
</clipPath>
</defs>
</svg>
