<svg width="423" height="145" viewBox="0 0 423 145" fill="none" xmlns="http://www.w3.org/2000/svg">
<path fill-rule="evenodd" clip-rule="evenodd" d="M216.076 -161.416C276.603 -165.533 337.142 -147.549 379.637 -117.626C421.681 -88.0207 438.362 -46.5332 437.994 -5.15327C437.629 35.9444 420.26 77.1341 377.65 105.953C335.347 134.565 275.402 144.177 216.076 144.942C155.38 145.724 92.4525 138.87 48.3329 110.196C3.18901 80.8562 -21.7468 37.2983 -14.87 -5.15327C-8.52409 -44.328 41.0995 -69.734 81.9581 -97.3799C122.288 -124.668 159.772 -157.587 216.076 -161.416Z" fill="#F14249" fill-opacity="0.05"/>
<path d="M211 70V56L207 60" stroke="#EC8C6F" stroke-width="3" stroke-linecap="round" stroke-linejoin="round"/>
<path d="M211 56L215 60" stroke="#EC8C6F" stroke-width="3" stroke-linecap="round" stroke-linejoin="round"/>
<path d="M190.961 78H199.781C200.541 78 201.221 78.42 201.561 79.1L203.901 83.78C204.581 85.14 205.961 86 207.481 86H214.541C216.061 86 217.441 85.14 218.121 83.78L220.461 79.1C220.801 78.42 221.501 78 222.241 78H230.961" stroke="#EC8C6F" stroke-width="3" stroke-linecap="round" stroke-linejoin="round"/>
<path d="M201 62.2598C193.92 63.2998 191 67.4598 191 75.9998V81.9998C191 91.9998 195 95.9998 205 95.9998H217C227 95.9998 231 91.9998 231 81.9998V75.9998C231 67.4598 228.08 63.2998 221 62.2598" stroke="#EC8C6F" stroke-width="3" stroke-linecap="round" stroke-linejoin="round"/>
<rect x="129.691" y="94.5693" width="12.6769" height="12.6769" rx="6.33846" fill="white"/>
<path fill-rule="evenodd" clip-rule="evenodd" d="M140 101.345C140 103.553 138.204 105.345 136 105.345C133.793 105.345 132 103.549 132 101.345C132 99.9855 132.68 98.7309 133.822 97.9927C134.091 97.8182 134.451 97.8945 134.625 98.1636C134.8 98.4327 134.724 98.7927 134.455 98.9673C133.644 99.4909 133.164 100.382 133.164 101.345C133.164 102.909 134.436 104.182 136 104.182C137.564 104.182 138.836 102.909 138.836 101.345C138.836 100.382 138.353 99.4909 137.545 98.9673C137.276 98.7927 137.2 98.4327 137.375 98.1636C137.549 97.8945 137.909 97.8182 138.178 97.9927C139.32 98.7309 140 99.9855 140 101.345ZM135.418 99.2691V96.5818C135.418 96.2618 135.68 96 136 96C136.32 96 136.582 96.2618 136.582 96.5818V99.2691C136.582 99.5891 136.32 99.8509 136 99.8509C135.68 99.8509 135.418 99.5891 135.418 99.2691Z" fill="#EC8C6F"/>
<rect x="98" y="47" width="9.5" height="9.5" rx="4.75" fill="white"/>
<path fill-rule="evenodd" clip-rule="evenodd" d="M105.725 52.078C105.725 53.7321 104.379 55.0756 102.728 55.0756C101.073 55.0756 99.73 53.7294 99.73 52.078C99.73 51.0588 100.24 50.1187 101.095 49.5655C101.297 49.4347 101.567 49.4919 101.698 49.6936C101.828 49.8952 101.771 50.165 101.569 50.2958C100.962 50.6882 100.602 51.3558 100.602 52.078C100.602 53.2498 101.556 54.2035 102.728 54.2035C103.899 54.2035 104.853 53.2498 104.853 52.078C104.853 51.3558 104.491 50.6882 103.886 50.2958C103.684 50.165 103.627 49.8952 103.758 49.6936C103.888 49.4919 104.158 49.4347 104.36 49.5655C105.216 50.1187 105.725 51.0588 105.725 52.078ZM102.292 50.522V48.5082C102.292 48.2683 102.488 48.0721 102.728 48.0721C102.967 48.0721 103.164 48.2683 103.164 48.5082V50.522C103.164 50.7618 102.967 50.958 102.728 50.958C102.488 50.958 102.292 50.7618 102.292 50.522Z" fill="#EC8C6F"/>
<rect x="147" y="11" width="15.85" height="15.85" rx="7.925" fill="white"/>
<path fill-rule="evenodd" clip-rule="evenodd" d="M159.889 19.4722C159.889 22.232 157.643 24.4734 154.888 24.4734C152.128 24.4734 149.886 22.2274 149.886 19.4722C149.886 17.7718 150.737 16.2032 152.164 15.2803C152.501 15.062 152.951 15.1575 153.169 15.494C153.387 15.8304 153.292 16.2805 152.955 16.4987C151.941 17.1535 151.341 18.2674 151.341 19.4722C151.341 21.4272 152.933 23.0185 154.888 23.0185C156.843 23.0185 158.434 21.4272 158.434 19.4722C158.434 18.2674 157.829 17.1535 156.82 16.4987C156.483 16.2805 156.388 15.8304 156.606 15.494C156.824 15.1575 157.275 15.062 157.611 15.2803C159.039 16.2032 159.889 17.7718 159.889 19.4722ZM154.16 16.8761V13.5162C154.16 13.1161 154.488 12.7888 154.888 12.7888C155.288 12.7888 155.615 13.1161 155.615 13.5162V16.8761C155.615 17.2762 155.288 17.6036 154.888 17.6036C154.488 17.6036 154.16 17.2762 154.16 16.8761Z" fill="#EC8C6F"/>
<rect x="226.583" y="20.5839" width="9.51" height="9.51" rx="4.755" fill="white"/>
<path fill-rule="evenodd" clip-rule="evenodd" d="M234.316 25.6673C234.316 27.3231 232.969 28.668 231.316 28.668C229.66 28.668 228.315 27.3204 228.315 25.6673C228.315 24.647 228.825 23.7059 229.682 23.1521C229.883 23.0212 230.153 23.0785 230.284 23.2803C230.415 23.4822 230.358 23.7523 230.156 23.8832C229.548 24.276 229.188 24.9444 229.188 25.6673C229.188 26.8403 230.143 27.795 231.316 27.795C232.489 27.795 233.443 26.8403 233.443 25.6673C233.443 24.9444 233.081 24.276 232.475 23.8832C232.273 23.7523 232.216 23.4822 232.347 23.2803C232.478 23.0785 232.748 23.0212 232.95 23.1521C233.806 23.7059 234.316 24.647 234.316 25.6673ZM230.879 24.1096V22.0937C230.879 21.8536 231.075 21.6572 231.316 21.6572C231.556 21.6572 231.752 21.8536 231.752 22.0937V24.1096C231.752 24.3497 231.556 24.5461 231.316 24.5461C231.075 24.5461 230.879 24.3497 230.879 24.1096Z" fill="#EC8C6F"/>
<rect x="290" y="40" width="15.85" height="15.85" rx="7.925" fill="white"/>
<path fill-rule="evenodd" clip-rule="evenodd" d="M302.889 48.4722C302.889 51.232 300.643 53.4734 297.888 53.4734C295.128 53.4734 292.886 51.2274 292.886 48.4722C292.886 46.7718 293.737 45.2032 295.164 44.2803C295.501 44.062 295.951 44.1575 296.169 44.494C296.387 44.8304 296.292 45.2805 295.955 45.4987C294.941 46.1535 294.341 47.2674 294.341 48.4722C294.341 50.4272 295.933 52.0185 297.888 52.0185C299.843 52.0185 301.434 50.4272 301.434 48.4722C301.434 47.2674 300.829 46.1535 299.82 45.4987C299.483 45.2805 299.388 44.8304 299.606 44.494C299.824 44.1575 300.275 44.062 300.611 44.2803C302.039 45.2032 302.889 46.7718 302.889 48.4722ZM297.16 45.8761V42.5162C297.16 42.1161 297.488 41.7888 297.888 41.7888C298.288 41.7888 298.615 42.1161 298.615 42.5162V45.8761C298.615 46.2762 298.288 46.6036 297.888 46.6036C297.488 46.6036 297.16 46.2762 297.16 45.8761Z" fill="#EC8C6F"/>
<rect x="267.829" y="106.829" width="19.02" height="19.02" rx="9.51" fill="white"/>
<path fill-rule="evenodd" clip-rule="evenodd" d="M283.295 116.995C283.295 120.307 280.6 122.997 277.294 122.997C273.982 122.997 271.293 120.302 271.293 116.995C271.293 114.955 272.313 113.073 274.026 111.965C274.43 111.703 274.97 111.818 275.232 112.222C275.494 112.625 275.379 113.165 274.975 113.427C273.759 114.213 273.038 115.55 273.038 116.995C273.038 119.341 274.948 121.251 277.294 121.251C279.64 121.251 281.55 119.341 281.55 116.995C281.55 115.55 280.824 114.213 279.613 113.427C279.209 113.165 279.094 112.625 279.356 112.222C279.618 111.818 280.158 111.703 280.562 111.965C282.275 113.073 283.295 114.955 283.295 116.995ZM276.421 113.88V109.848C276.421 109.368 276.814 108.975 277.294 108.975C277.774 108.975 278.167 109.368 278.167 109.848V113.88C278.167 114.36 277.774 114.753 277.294 114.753C276.814 114.753 276.421 114.36 276.421 113.88Z" fill="#EC8C6F"/>
</svg>
