<svg width="1440" height="816" viewBox="0 0 1440 816" fill="none" xmlns="http://www.w3.org/2000/svg">
<path d="M100.826 213.104C104.499 208.209 107.046 208.014 97.4347 199.533C87.8237 191.052 82.7339 190.487 84.4293 182.01C86.1247 173.526 80.4733 174.66 87.8237 171.269C95.1705 167.875 94.0403 167.313 107.611 165.049C121.178 162.788 135.878 162.223 123.438 156.568C111.002 150.913 111.244 157.702 106.035 146.392C100.826 135.082 90.6494 132.822 109.871 132.822C129.093 132.822 127.967 125.471 129.093 132.822C130.227 140.168 143.794 147.522 137.577 133.952C131.357 120.385 118.917 120.95 128.532 114.165C138.143 107.383 139.273 107.383 146.623 105.684C153.97 103.989 145.489 103.424 161.324 98.899C177.155 94.3743 173.196 90.9835 182.245 98.899C191.287 106.818 188.462 113.6 197.507 114.73C206.557 115.864 204.858 100.598 209.948 116.991C215.037 133.383 208.249 132.822 221.258 137.912C234.259 143.001 222.949 146.957 235.958 139.607C248.96 132.26 244.439 123.211 253.485 131.691C262.531 140.168 255.749 138.473 270.45 141.867C285.151 145.258 287.973 150.124 285.712 153.627C283.452 157.133 277.485 163.35 286.404 166.744C295.323 170.135 293.062 161.654 302.108 169.005C311.154 176.355 307.763 185.401 320.204 173.53C332.64 161.658 326.985 165.049 335.466 174.095C343.95 183.141 334.904 180.315 347.906 174.095C360.908 167.878 357.517 170.704 366.563 174.095C375.609 177.489 380.698 153.739 379.003 176.355C377.304 198.972 379.568 183.137 391.44 181.445C403.315 179.75 406.14 184.271 403.315 188.227C400.485 192.186 399.355 201.232 386.919 203.493C374.482 205.757 380.133 201.232 364.871 213.104C349.605 224.979 359.781 226.678 346.211 236.85C332.644 247.026 336.6 254.946 341.121 260.601C345.646 266.255 355.26 253.25 357.517 269.081C359.781 284.912 364.302 271.342 368.258 288.868C372.218 306.391 376.174 318.831 378.438 305.83C380.698 292.824 380.698 291.694 380.133 284.343C379.568 276.993 397.095 289.998 394.834 276.424C392.57 262.857 386.35 274.164 392.57 259.463C398.79 244.762 400.485 248.722 401.051 240.241C401.616 231.76 411.795 218.19 415.751 227.801C419.711 237.412 407.836 233.456 415.751 240.241C423.667 247.023 427.623 236.847 425.928 249.852C424.232 262.854 428.757 273.03 433.847 263.419C438.937 253.808 432.713 240.241 440.628 250.982C448.547 261.724 448.547 265.683 447.414 272.465C446.283 279.25 436.672 284.34 443.458 288.861C450.243 293.386 446.852 289.426 450.243 293.386C453.637 297.342 463.81 289.426 456.463 301.866C449.116 314.307 462.118 326.174 449.116 322.218C436.111 318.262 443.461 308.652 430.456 317.694C417.454 326.74 425.931 315.998 425.931 330.134C425.931 344.27 437.806 342.571 420.841 346.527C403.88 350.483 408.405 338.611 400.486 352.182C392.57 365.748 404.445 364.622 389.744 370.277C375.043 375.928 376.177 383.847 371.653 391.194C367.128 398.544 355.822 387.238 353.561 409.851C351.297 432.467 352.427 441.513 350.732 436.423C349.04 431.333 346.776 429.073 346.776 429.073C346.776 429.073 345.646 431.333 339.429 426.812C333.209 422.291 355.26 412.111 328.688 417.201C302.112 422.291 313.422 427.942 300.42 426.247C287.415 424.548 269.888 426.812 275.543 442.643C281.198 458.478 291.374 456.214 294.2 467.52C297.026 478.826 312.857 486.746 308.901 467.52C304.945 448.298 320.776 440.948 320.211 451.689C319.646 462.434 319.077 461.3 320.776 474.867C322.471 488.437 312.295 482.786 328.126 485.612C343.957 488.437 326.427 505.399 339.436 508.228C352.438 511.054 347.352 502.573 355.267 508.228C363.183 513.883 364.313 516.767 366.574 508.822C368.834 500.878 387.495 486.177 386.361 498.052C385.227 509.923 394.845 503.703 400.493 503.138C406.148 502.577 403.322 492.401 416.889 504.837C430.459 517.277 424.804 510.706 435.546 513.709C446.291 516.709 439.505 513.883 447.986 524.056C456.467 534.235 470.599 529.714 469.468 541.02C468.342 552.327 467.773 544.98 468.342 552.327C468.907 559.677 460.991 564.198 475.688 557.982C490.389 551.765 490.389 542.154 497.74 557.982C505.086 573.813 500.565 561.38 513.567 564.202C526.573 567.028 531.662 563.637 526.573 576.077C521.483 588.514 532.227 583.993 520.918 599.824C509.608 615.655 507.347 620.741 509.608 632.616C511.872 644.488 525.439 645.056 499.428 646.748C473.424 648.447 471.16 646.748 472.29 663.713C473.424 680.674 472.856 680.109 464.94 688.59C457.024 697.067 452.503 699.331 453.069 704.421C453.634 709.507 448.544 710.072 440.063 713.463C431.586 716.858 427.627 713.463 426.496 723.074C425.362 732.685 428.192 729.294 419.711 733.819C411.23 738.34 418.016 733.819 421.406 741.734C424.797 749.654 420.841 752.476 417.45 753.606C414.056 754.733 405.575 748.52 414.056 754.733C422.54 760.953 427.627 762.083 422.54 766.043C417.45 769.999 410.665 766.043 415.19 770.564C419.715 775.088 432.151 776.784 428.195 780.175C424.236 783.569 415.19 772.828 416.885 783.569C418.584 794.31 422.54 788.094 424.236 798.274C425.931 808.45 438.94 807.316 428.76 810.424C418.584 813.536 420.841 822.016 405.01 805.62C389.183 789.228 382.963 808.446 388.052 781.874C393.139 755.298 393.139 754.167 390.878 748.516C388.618 742.861 378.442 755.863 387.487 734.384C396.533 712.894 398.229 720.248 389.748 707.243C381.267 694.241 368.265 702.722 381.267 690.282C394.273 677.842 390.313 682.931 386.922 666.532C383.531 650.139 384.097 650.139 385.788 641.658C387.487 633.178 395.968 629.218 384.658 624.132C373.352 619.042 379.007 620.172 372.218 611.126C365.433 602.081 371.653 622.433 360.346 602.081C349.036 581.728 359.781 591.905 346.207 578.334C332.64 564.763 321.895 577.2 332.64 561.373C343.381 545.542 348.471 547.237 347.906 535.362C347.341 523.49 351.297 524.621 343.385 520.096C335.466 515.571 334.339 516.705 328.684 507.659C323.029 498.61 329.249 504.83 319.073 496.914C308.897 488.995 323.348 495.781 306.231 488.995C289.11 482.21 293.066 475.994 286.281 479.95C279.496 483.905 289.11 487.3 273.279 482.21C257.448 477.124 264.798 485.036 252.923 473.164C241.052 461.289 240.487 459.539 240.487 454.757C240.487 449.983 243.312 441.502 233.701 429.062C224.09 416.625 233.701 412.101 222.957 408.145C212.215 404.189 214.476 399.099 215.045 412.101C215.61 425.102 222.391 430.757 221.265 439.238C220.131 447.719 219.566 451.95 211.089 433.155C202.608 414.361 202.043 424.537 198.648 408.71C195.258 392.879 198.083 416.056 192.993 388.354C187.907 360.648 171.511 361.778 185.647 342.556C199.779 323.334 205.434 326.725 200.347 309.764C195.261 292.802 203.738 303.544 195.261 285.452C186.781 267.357 199.217 259.445 191.302 253.79C183.386 248.135 192.436 244.179 181.691 232.869C170.95 221.563 189.606 219.867 167.555 213.082C145.504 206.3 155.115 213.647 141.548 206.3C127.981 198.95 133.629 196.689 120.062 207.992C106.491 219.302 114.972 222.693 102.535 227.214C90.0952 231.742 82.7484 241.353 76.5283 241.353C70.3081 241.353 52.2165 246.439 72.0035 232.304C91.7833 218.194 88.954 228.935 100.826 213.104Z" fill="#EC8C6F" fill-opacity="0.05"/>
<path d="M418.715 213.955C413.39 211.745 410.234 208.441 407.267 213.955C404.3 219.465 405.568 219.465 410.658 219.465C415.748 219.465 420.834 218.618 421.685 224.979C422.533 231.34 419.142 228.794 427.196 232.608C435.252 236.427 444.581 247.874 443.313 240.669C442.038 233.46 434.405 230.917 439.494 229.645C444.581 228.37 453.065 240.977 447.551 227.044C442.041 213.107 435.676 213.299 441.614 211.086C447.551 208.869 440.339 207.597 451.79 213.531C463.237 219.469 468.751 220.74 464.933 211.836C461.118 202.931 456.452 205.051 454.333 197.842C452.214 190.636 454.333 200.388 452.214 187.242C450.094 174.099 455.181 174.946 448.823 170.28C442.461 165.614 447.975 175.37 442.461 165.614C436.948 155.862 435.252 166.038 433.981 153.739C432.706 141.444 435.673 134.235 428.891 138.473C422.106 142.712 432.706 149.497 422.106 142.712C411.506 135.93 417.867 131.264 407.687 133.383C397.511 135.506 407.264 136.354 397.511 143.563C387.759 150.772 383.944 155.862 391.15 161.372C398.359 166.886 394.121 161.796 402.174 169.853C410.231 177.91 405.988 171.548 416.592 174.519C427.192 177.489 428.898 175.366 426.775 185.543C424.645 195.719 428.898 192.748 426.775 199.957C424.645 207.166 423.801 206.319 421.254 210.137C418.715 213.955 424.533 216.371 418.715 213.955Z" fill="#EC8C6F" fill-opacity="0.05"/>
<path d="M295.747 148.651C306.571 146.659 294.258 138.689 297.225 136.142C300.195 133.595 303.162 131.48 294.682 128.085C286.201 124.691 278.999 121.539 283.234 120.358C287.469 119.177 279.84 117.058 288.744 112.396C297.649 107.73 286.306 109.001 300.25 106.882C314.186 104.759 314.61 103.067 312.915 111.972C311.219 120.876 309.524 121.996 316.305 121.01C323.091 120.029 336.871 134.229 336.448 127.448C336.024 120.662 337.299 114.301 344.084 120.662C350.866 127.024 342.809 117.268 352.141 124.053C361.469 130.839 346.627 126.173 343.236 136.776C339.846 147.38 349.174 147.38 344.512 153.31C339.846 159.248 345.356 169.424 338.15 166.033C330.945 162.642 331.459 154.582 324.841 158.824C318.222 163.062 324.583 166.033 312.708 163.062C300.837 160.095 308.042 163.062 300.837 160.095C293.624 157.136 291.124 149.506 295.747 148.651Z" fill="#EC8C6F" fill-opacity="0.05"/>
<path d="M486.984 90.1335C485.644 94.1583 480.199 90.1081 473.417 94.1474C466.632 98.1903 467.479 99.038 473.417 102.005C479.351 104.972 492.921 105.82 484.865 108.363C476.808 110.909 465.139 103.697 468.639 110.909C472.142 118.119 471.338 113.876 477.677 119.39C484.017 124.904 477.659 118.966 489.103 125.752C500.554 132.537 500.554 129.189 500.554 135.949C500.554 142.709 499.279 136.775 500.554 149.495C501.83 162.217 503.521 159.754 500.554 166.709C497.587 173.665 501.83 166.883 503.945 175.788C506.068 184.689 508.184 180.026 500.131 184.269C492.074 188.507 494.617 188.507 498.435 194.021C502.253 199.531 496.316 199.531 495.041 205.896C493.769 212.254 499.707 213.101 494.193 221.162C488.679 229.219 489.527 224.553 495.041 236.428C500.554 248.299 498.91 249.147 505.88 253.389C512.85 257.631 518.787 270.35 520.483 255.508C522.182 240.666 520.907 243.633 525.993 237.272C531.083 230.914 522.178 229.642 538.712 224.129C555.249 218.619 545.921 221.162 559.068 211.833C572.211 202.501 566.701 209.287 579 201.657C591.299 194.024 591.723 191.173 590.023 187.935C588.328 184.692 583.836 180.454 590.748 182.997C597.656 185.544 606.141 191.054 601.051 180.454C595.965 169.854 584.513 173.324 595.541 166.713C606.568 160.098 605.717 159.674 605.293 156.283C604.869 152.889 610.383 159.25 610.807 149.498C611.231 139.746 607.412 139.746 610.807 134.656C614.198 129.566 620.983 139.322 616.744 127.874C612.502 116.423 607.836 116.423 615.897 107.519C623.953 98.6142 621.41 99.4329 626.073 94.1474C630.739 88.8583 631.163 93.9518 634.13 83.7757C637.096 73.596 640.915 68.9336 634.13 73.596C627.344 78.262 634.977 72.3244 620.559 78.6858C606.141 85.0436 605.717 88.0142 602.746 88.0142C599.779 88.0142 622.675 74.2082 618.86 71.781C615.045 69.3539 618.012 67.8432 609.955 71.781C601.899 75.7153 598.932 79.1097 602.322 72.3244C605.717 65.5392 606.565 71.3572 611.231 64.8436C615.893 58.3301 615.045 59.6016 618.436 60.8732C621.827 62.1447 626.917 57.0585 617.588 54.5118C608.26 51.9686 616.744 52.3961 607.412 47.3063C598.084 42.2164 604.869 38.4017 590.451 43.4916C576.033 48.5815 586.212 49.0053 575.609 46.4586C565.005 43.9118 561.618 44.7632 560.343 51.121C559.068 57.4824 562.886 64.2676 556.104 59.6016C549.319 54.9356 551.866 42.2164 549.319 54.9356C546.776 67.6584 539.567 80.3776 539.567 68.93C539.567 57.4824 544.657 48.154 536.176 53.2402C527.695 58.3301 527.695 59.1778 524.301 57.4823C520.91 55.7833 521.334 50.2732 517.096 59.1778C512.853 68.0823 515.82 70.6254 510.307 69.3538C504.797 68.0823 499.707 59.6016 498.011 68.93C496.312 78.2584 499.279 70.2016 499.703 79.9538C500.127 89.706 499.703 92.6766 495.037 88.8583C490.375 85.0473 487.832 87.594 486.984 90.1335Z" fill="#EC8C6F" fill-opacity="0.05"/>
<path d="M929.113 137.061C931.659 134.232 930.812 132.54 926.287 130.276C921.766 128.012 910.738 126.602 918.085 120.947C925.436 115.292 916.393 116.234 927.131 112.938C937.876 109.638 928.547 112.749 933.637 106.815C938.724 100.878 938.441 102.291 941.835 103.986C945.226 105.682 942.118 97.487 948.338 101.16C954.558 104.834 955.123 100.878 953.711 98.0522C952.298 95.2229 956.254 94.6577 953.145 92.9623C950.037 91.2669 943.817 91.8321 948.621 85.3294C953.428 78.8267 956.822 70.9111 959.648 79.1129C962.474 87.311 965.02 82.7863 967.281 85.3294C969.545 87.8761 965.868 92.9623 970.11 92.9623C974.349 92.9623 969.828 86.4597 977.457 85.3294C985.09 84.1955 986.507 80.2395 990.18 88.7238C993.857 97.2009 1000.64 85.8945 994.14 103.425C987.637 120.947 985.376 124.342 987.637 127.171C989.897 129.997 997.574 130.562 996.846 123.212C996.118 115.865 995.552 111.905 1001.49 115.014C1007.42 118.125 1007.99 116.709 1011.38 115.579C1014.77 114.445 1015.06 110.771 1020.99 114.162C1026.93 117.557 1020.43 116.14 1028.34 116.14C1036.26 116.14 1042.19 119.817 1041.34 114.727C1040.5 109.637 1030.88 106.138 1040.22 106.334C1049.54 106.529 1047 104.725 1055.76 106.334C1064.53 107.946 1060.85 102.664 1063.68 112.938C1066.51 123.208 1062.26 122.364 1069.9 124.621C1077.53 126.885 1079.23 132.54 1079.51 124.907C1079.79 117.274 1073.86 116.144 1081.49 116.144C1089.12 116.144 1076.12 113.409 1089.69 112.941C1103.26 112.47 1104.39 117.278 1099.58 108.232C1094.78 99.1825 1086.29 94.3752 1099.3 95.5091C1112.3 96.643 1110.6 100.599 1114 96.643C1114 96.643 1110.75 88.4449 1122.62 92.2596C1134.5 96.0778 1129.41 88.021 1134.5 96.0778C1139.58 104.135 1138.31 113.637 1148.06 106.341C1157.82 99.0448 1149.34 85.0504 1162.91 94.3788C1176.48 103.707 1166.72 100.914 1173.08 106.341C1179.44 111.768 1179.02 113.039 1184.53 108.801C1190.04 104.558 1186.65 104.135 1195.13 102.439C1203.62 100.74 1198.95 99.0448 1203.19 95.2301C1207.43 91.4155 1204.04 94.3824 1211.25 101.168C1218.46 107.953 1222.7 110.072 1218.03 102.439C1213.37 94.8063 1210.83 95.2301 1208.71 91.4155C1206.59 87.6008 1210.83 87.1769 1215.91 89.2926C1221 91.4155 1209.55 84.1846 1229.06 87.5899C1248.57 90.988 1248.14 92.687 1253.23 90.988C1258.32 89.2926 1259.17 83.7825 1267.65 92.687C1276.13 101.592 1277.4 101.592 1275.28 96.0778C1273.15 90.5641 1276.98 79.0948 1281.64 87.5899C1286.3 96.0778 1293.94 90.988 1290.97 100.74C1288 110.492 1294.78 108.801 1294.35 114.735C1293.93 120.672 1293.09 125.758 1285.45 121.52C1277.82 117.281 1277.4 112.191 1271.88 117.705C1266.37 123.215 1267.22 119.401 1271.04 124.914C1274.85 130.424 1275.7 136.083 1273.58 137.068C1271.46 138.057 1270.61 133.533 1266.8 137.068C1262.98 140.6 1264.25 138.057 1268.49 140.6C1272.73 143.147 1274.01 147.545 1280.36 150.009C1286.73 152.476 1292.24 152.052 1286.73 157.138C1281.21 162.228 1278.24 157.558 1276.98 164.771C1275.7 171.98 1271.46 169.861 1271.04 180.037C1270.61 190.217 1274.85 187.67 1266.8 187.67C1258.74 187.67 1254.92 189.369 1251.11 194.883C1247.29 200.393 1248.56 203.363 1251.53 208.026C1254.5 212.692 1248.98 212.268 1255.77 218.205C1262.56 224.143 1258.74 223.295 1257.89 230.928C1257.04 238.561 1262.98 230.928 1260.86 242.376C1258.74 253.827 1255.35 245.346 1258.74 253.827C1262.13 262.304 1261.71 257.218 1257.04 265.278C1252.38 273.335 1255.34 269.517 1251.1 262.308C1246.86 255.102 1248.56 253.831 1240.5 245.774C1232.44 237.713 1228.63 242.379 1232.87 230.932C1237.11 219.48 1239.23 222.027 1237.11 216.941C1234.99 211.851 1232.45 219.484 1235.84 208.457C1239.23 197.436 1239.66 194.89 1241.77 188.952C1243.89 183.015 1240.5 183.862 1238.81 176.233C1237.11 168.6 1232.87 167.068 1233.29 172.712C1233.71 178.352 1240.93 176.233 1236.26 183.866C1231.6 191.499 1232.87 194.893 1228.63 188.108C1224.38 181.323 1223.12 176.66 1220.99 183.442C1218.87 190.227 1225.23 179.627 1218.87 190.227C1212.51 200.827 1220.57 199.132 1219.72 205.917C1218.87 212.699 1209.12 212.275 1208.27 216.941C1207.42 221.607 1211.24 216.006 1206.15 212.445C1201.06 208.884 1198.52 209.221 1197.25 212.445C1195.97 215.669 1197.67 203.287 1190.89 212.445C1184.1 221.607 1184.52 218.212 1180.71 222.027C1176.89 225.845 1176.89 229.66 1172.65 236.445C1168.41 243.227 1159.93 239.412 1165.44 249.588C1170.95 259.765 1170.53 256.37 1173.92 262.308C1177.31 268.245 1177.88 254.11 1183.25 259.341C1188.62 264.572 1173.07 258.613 1190.46 269.788C1207.85 280.968 1183.11 270.651 1191.17 277.008C1191.17 277.008 1198.23 276.164 1196.82 289.449C1198.09 309.804 1192.57 295.81 1193.85 311.072C1195.12 326.338 1197.67 320.401 1192.15 328.885C1186.64 337.366 1189.61 338.213 1181.97 337.79C1174.34 337.366 1172.22 333.127 1173.07 340.333C1173.91 347.542 1168.4 333.127 1170.52 346.27C1172.65 359.417 1161.2 354.755 1166.29 361.112C1171.37 367.474 1169.68 365.775 1175.19 370.017C1180.7 374.259 1183.67 369.597 1181.55 377.226C1179.43 384.855 1179.01 388.677 1173.49 386.554C1167.98 384.435 1172.22 379.349 1167.56 375.951C1162.89 372.56 1161.62 375.951 1160.77 368.321C1159.92 360.688 1160.77 358.569 1153.99 359.417C1147.2 360.265 1148.9 362.808 1144.66 362.808C1140.42 362.808 1144.24 364.927 1142.96 358.142C1141.69 351.356 1137.02 351.356 1136.6 356.022C1136.18 360.688 1128.54 356.446 1130.66 363.232C1132.78 370.013 1132.78 371.288 1135.33 374.255C1137.87 377.222 1136.6 372.984 1142.53 372.136C1148.47 371.288 1156.1 371.288 1149.32 375.107C1142.53 378.921 1135.33 377.653 1140.84 384.435C1146.35 391.217 1144.23 387.402 1147.62 393.763C1151.01 400.121 1150.59 398.002 1152.29 403.092C1153.98 408.178 1158.22 407.33 1154.83 414.116C1151.44 420.897 1151.01 426.835 1149.32 431.077C1147.62 435.315 1150.59 440.405 1143.38 443.8C1136.17 447.191 1136.17 446.343 1129.81 448.886C1123.45 451.433 1123.02 455.247 1118.78 456.095C1114.54 456.943 1112.85 453.128 1106.91 456.095C1100.97 459.062 1099.28 456.095 1099.28 464.576C1099.28 473.06 1107.76 477.299 1110.31 480.689C1112.85 484.08 1109.03 480.689 1112 490.442C1114.97 500.194 1116.67 498.498 1108.18 504.008C1099.7 509.519 1102.67 512.069 1095.89 504.008C1089.1 495.952 1086.98 493.832 1081.04 494.256C1075.11 494.68 1072.56 495.104 1073.84 502.317C1075.11 509.522 1073.19 512.493 1077.54 517.155C1081.89 521.821 1082.32 515.46 1088.68 524.788C1095.04 534.117 1100.12 531.153 1098.85 538.783C1097.58 546.416 1096.31 551.505 1089.95 542.177C1083.59 532.845 1080.2 532.352 1079.35 527.726C1078.5 523.1 1080.62 523.94 1072.99 516.735C1065.36 509.526 1062.81 511.649 1066.2 502.32C1069.6 492.992 1069.17 491.717 1066.63 485.355C1064.08 478.994 1064.51 473.48 1058.99 475.603C1053.48 477.722 1052.21 477.302 1050.94 473.484C1049.66 469.669 1053.06 465.855 1047.54 464.579C1042.03 463.308 1044.58 462.884 1042.03 457.374C1039.49 451.86 1041.18 448.469 1033.55 451.86C1025.92 455.255 1027.19 445.923 1021.25 455.255C1015.31 464.583 1012.34 467.126 1008.1 468.398C1003.87 469.673 1010.23 466.278 1000.48 476.458C990.723 486.634 986.485 481.548 989.872 490.873C993.266 500.201 999.624 500.625 993.266 508.685C986.905 516.742 997.929 515.471 983.938 502.748C969.947 490.025 968.248 498.506 966.129 484.935C964.01 471.365 967.824 476.031 963.162 465.431C958.496 454.827 952.982 467.55 948.744 456.526L940.687 446.35C932.63 437.869 941.962 436.598 925.421 439.565C908.884 442.535 918.636 441.329 905.917 438.116C893.194 434.902 901.675 435.75 893.194 434.902C884.713 434.055 891.926 439.568 882.17 430.664C872.418 421.759 874.537 420.912 866.904 420.912C859.271 420.912 855.877 423.458 861.394 428.972C866.904 434.482 863.513 437.029 871.994 441.691C880.475 446.357 876.66 447.629 885.561 443.387C894.465 439.145 892.35 433.635 895.313 441.691C898.28 449.748 898.28 442.115 903.794 446.357C909.307 450.6 916.94 446.357 909.731 455.686C902.526 465.014 905.319 462.047 899.682 467.561C894.042 473.075 889.379 478.581 883.021 479.856C876.66 481.131 876.236 481.131 872.842 486.641C869.451 492.155 875.809 493.427 865.633 492.155C855.453 490.88 853.761 489.67 849.519 492.608C845.28 495.546 847.824 502.335 842.737 487.917C837.651 473.498 842.313 480.284 835.104 470.955C827.899 461.627 825.776 462.475 825.776 456.537C825.776 450.6 830.438 456.537 822.809 448.056C815.176 439.576 824.504 445.086 815.176 436.181C805.848 427.277 785.068 416.249 796.095 429.82C807.119 443.39 805.848 438.304 810.51 448.056C815.176 457.809 809.235 453.57 816.02 461.199C822.805 468.832 819.415 470.952 824.501 476.042C829.591 481.131 830.862 479.008 831.71 484.522C832.558 490.036 830.435 493.8 837.651 496.796C844.857 499.788 842.313 500.639 849.095 502.335C855.88 504.027 848.251 503.179 859.275 502.335C870.299 501.487 861.822 501.911 870.299 501.487C878.779 501.063 877.508 496.821 873.689 507.845C869.871 518.869 874.537 511.239 869.871 518.869C865.209 526.502 866.056 519.716 861.394 530.744C856.728 541.768 856.728 538.373 851.214 543.887C845.704 549.397 844.429 548.549 841.035 554.067C837.644 559.577 836.372 551.1 832.554 559.153C828.739 567.21 832.13 557.03 828.739 567.21C825.341 577.389 828.739 570.608 829.583 582.476C830.427 594.347 828.312 592.655 831.703 600.712C835.093 608.769 836.369 610.04 830.855 614.279C825.345 618.521 822.798 614.279 816.864 621.484C810.927 628.694 808.804 626.15 809.655 632.936C810.503 639.721 813.901 642.684 810.93 646.926C807.963 651.165 812.205 651.165 803.301 653.712C794.396 656.259 803.301 654.987 795.24 666.431C787.184 677.882 790.578 671.097 782.521 678.73C774.461 686.359 779.975 681.693 768.527 687.634C757.079 693.572 750.294 700.778 743.509 692.297C736.723 683.816 744.784 693.572 736.723 679.578C728.67 665.583 728.67 674.064 728.246 659.646C727.823 645.227 728.246 647.347 724.432 641.837C720.614 636.323 729.098 640.141 719.766 630.813C710.434 621.481 698.562 631.657 710.434 615.547C722.305 599.433 728.243 601.556 723.58 593.92C718.918 586.29 729.518 589.677 721.034 577.382C712.553 565.083 714.676 570.6 710.858 562.12C707.039 553.635 701.102 558.722 703.649 551.092C706.192 543.459 715.944 535.826 708.315 532.436C700.682 529.041 693.049 526.433 690.926 527.737C688.806 529.041 688.241 521.271 684.85 520.137C680.558 518.706 681.456 519.003 672.975 523.531C664.495 528.052 666.19 526.357 657.709 526.357C649.229 526.357 646.345 529.24 637.893 526.668C629.442 524.093 643.574 530.066 627.178 520.013C610.785 509.961 613.042 519.571 607.956 506.57C602.866 493.564 596.084 501.48 601.174 489.04C606.264 476.603 607.391 483.388 605.13 471.513C602.866 459.638 597.214 467.499 603.435 454.805C609.655 442.115 607.391 448.897 613.046 439.851C618.701 430.805 623.225 438.159 629.442 427.98C635.662 417.803 628.877 425.719 633.963 413.848C639.053 401.972 627.743 409.326 639.053 401.972C650.363 394.626 644.143 391.793 656.014 395.187C667.886 398.582 649.232 409.323 667.886 398.582C686.542 387.84 679.196 386.141 691.632 388.971C704.072 391.796 694.461 387.275 704.072 391.796C713.683 396.321 702.377 394.061 709.162 402.541C715.944 411.022 700.116 409.326 715.944 411.022C731.775 412.717 719.338 413.286 732.34 417.807C745.342 422.332 745.342 435.33 748.171 421.763C750.997 408.193 737.991 403.106 754.391 408.193C770.784 413.282 769.092 414.409 776.439 414.409C783.789 414.409 778.138 412.714 789.444 413.848C800.751 414.978 791.143 429.11 800.751 414.978C810.362 400.842 818.281 395.756 808.101 393.495C797.925 391.231 801.316 394.061 790.009 392.361C778.703 390.666 782.663 398.419 776.439 387.757C770.219 377.096 782.663 375.962 769.092 374.27C755.522 372.574 754.956 369.18 754.956 378.791C754.956 388.402 755.522 390.662 747.61 381.051C739.698 371.441 753.265 374.27 742.523 365.22C731.779 356.175 727.823 357.874 722.733 354.483C717.647 351.088 713.687 339.217 712.557 347.698C711.423 356.178 722.733 362.398 727.257 367.485C731.782 372.574 731.782 373.14 727.823 377.661C723.867 382.185 720.472 386.706 721.037 379.925C721.603 373.14 721.602 369.749 715.947 367.485C710.296 365.22 719.907 355.609 708.601 356.175C697.291 356.74 703.511 363.525 692.77 360.131C682.028 356.74 679.768 348.824 677.504 359.569C675.243 370.31 670.722 367.485 668.458 373.136C666.197 378.791 672.983 379.36 663.372 384.446C653.761 389.532 655.456 395.187 647.541 391.228C639.625 387.272 636.234 391.796 634.539 384.446C632.84 377.096 642.396 383.881 637.904 372.006C633.409 360.131 623.232 364.09 633.409 360.131C643.585 356.175 639.064 349.951 651.5 354.479C663.94 359 664.506 363.525 664.506 355.044C664.506 346.56 669.595 339.213 663.375 339.213C657.155 339.213 648.109 338.648 652.63 334.123C657.155 329.602 652.065 330.167 661.676 330.167C671.287 330.167 665.636 337.514 672.418 326.773C679.206 316.032 666.762 320.557 679.206 316.032C691.643 311.511 692.208 319.991 691.643 311.511C691.078 303.03 691.078 308.12 695.603 302.465C700.127 296.81 695.603 293.419 696.733 287.199C697.867 280.983 702.953 273.067 703.518 282.674C704.083 292.285 699.12 297.94 706.126 297.94C713.133 297.94 713.133 296.81 719.918 299.074C726.7 301.335 726.7 301.9 734.05 297.94C741.4 293.984 738.006 291.72 741.4 293.984C744.791 296.245 741.4 298.509 742.534 289.46C743.668 280.414 743.668 272.582 748.754 278.193C753.841 283.805 754.971 288.894 756.101 281.544C757.235 274.194 746.49 279.283 751.015 271.364C755.536 263.449 755.536 262.887 760.622 266.278C765.712 269.669 780.413 267.839 770.802 262.536C761.191 257.232 761.191 253.841 756.67 258.363C752.149 262.887 752.149 270.238 747.624 266.278C743.103 262.319 747.624 260.366 741.973 256.251C736.318 252.139 734.622 249.882 738.578 245.926C742.538 241.966 745.925 245.361 746.49 238.572C747.055 231.79 756.67 234.616 751.576 228.396C746.49 222.176 746.49 222.741 741.4 228.396C736.314 234.051 739.14 231.225 736.314 236.876C733.488 242.531 730.094 238.572 726.7 248.186C723.309 257.797 726.7 252.008 729.529 262.536C732.355 273.063 731.221 271.364 727.83 274.759C724.439 278.15 732.355 275.324 727.265 284.37C722.178 293.415 719.349 297.937 715.955 291.716C712.564 285.5 704.772 286.627 706.126 278.715C707.478 270.799 714.951 265.144 706.126 269.104C697.302 273.06 702.953 274.19 695.606 275.889C688.256 277.584 689.386 287.761 688.256 273.625C687.126 259.493 684.3 264.014 687.126 255.533C689.955 247.049 688.821 248.61 695.606 243.021C702.391 237.438 704.775 239.702 706.126 232.348C707.478 225.001 703.518 231.222 712.564 221.611C721.61 211.996 723.305 213.695 721.045 207.475C718.784 201.258 719.914 204.084 734.05 193.904C748.186 183.725 744.226 176.943 751.011 183.725C757.797 190.51 756.666 190.51 762.883 191.644C769.103 192.771 756.663 191.075 772.494 195.6C788.325 200.125 782.105 193.336 791.15 200.69C800.193 208.036 805.283 204.08 802.457 212.561C799.631 221.045 801.323 223.306 791.712 221.045C782.105 218.781 780.406 215.39 777.58 218.216C774.758 221.045 762.314 212.561 771.36 219.912C780.406 227.258 780.406 225.567 783.231 231.222C786.057 236.873 789.451 241.398 791.15 237.438C792.846 233.482 796.805 240.267 792.846 233.482C788.89 226.7 788.325 227.827 796.237 228.957C804.156 230.091 801.247 232.794 801.323 224.433C801.406 216.072 803.022 210.301 806.413 214.822C809.804 219.343 811.959 226.697 812.861 218.778C813.763 210.866 809.8 211.431 809.8 206.906C809.8 202.385 801.319 196.73 808.67 198.991C816.016 201.251 820.541 198.426 818.281 203.512C816.016 208.598 809.275 219.343 818.864 211.427C828.457 203.512 825.062 219.343 826.761 211.427C828.46 203.512 831.282 200.117 832.981 198.987C834.677 197.853 832.858 197.853 834.677 197.853C849.943 195.027 842.995 194.209 845.82 194.209C848.65 194.209 845.422 192.202 856.159 193.897C866.904 195.593 866.904 190.485 864.075 187.949C862.662 186.681 860.684 190.075 859.836 188.666C858.989 187.253 855.877 184.616 853.899 184.569C849.939 184.475 849.939 179.196 842.027 178.631C834.108 178.066 828.46 179.765 827.895 170.716C827.33 161.67 830.721 154.319 832.416 144.143C834.112 133.964 830.721 126.617 839.763 123.788C848.813 120.962 848.247 121.527 853.334 117.006C858.42 112.481 863.513 110.786 862.383 117.006C861.249 123.222 862.383 123.788 855.033 130.577C847.682 137.362 851.638 128.316 846.552 139.622C841.462 150.932 834.112 145.842 836.376 157.718C838.636 169.589 837.314 166.597 845.422 173.545C853.526 180.497 860.517 188.807 868.6 185.42C872.983 183.583 871.425 185.398 877.645 187.952C877.645 187.952 876.801 188.811 879.341 189.8C881.887 190.789 881.181 190.365 884.007 192.767C886.832 195.169 886.832 199.976 889.376 195.455C891.922 190.93 892.629 191.213 890.223 189.376C887.821 187.539 887.115 184.145 884.996 184.145C882.876 184.145 879.906 184.993 879.765 180.189C879.623 175.385 879.765 177.222 877.787 174.393C875.809 171.567 875.102 173.259 876.942 168.879C878.776 164.499 879.199 163.365 878.355 161.108C877.508 158.848 873.266 158 878.214 155.03C883.163 152.063 881.75 149.94 886.13 153.052C890.513 156.16 891.502 148.809 890.513 156.16C889.524 163.51 888.097 162.945 891.705 167.607C895.317 172.273 892.919 168.879 895.882 173.828C898.849 178.776 896.306 178.211 898.708 182.171C901.113 186.127 901.675 184.145 903.652 188.387C905.634 192.626 904.641 191.923 904.786 196.589C904.928 201.255 902.946 203.088 900.548 203.939C898.142 204.787 897.157 206.345 898.425 207.33C899.7 208.319 902.348 210.866 904.909 208.743C907.474 206.624 908.605 210.58 909.311 204.077C910.014 197.578 909.731 199.838 909.311 195.596C908.884 191.358 906.359 188.387 909.739 186.837C913.126 185.279 911.43 179.906 915.104 186.13C918.777 192.35 919.342 196.589 920.19 193.618C921.038 190.651 921.606 192.205 919.625 187.822C917.647 183.442 916.238 184.431 914.256 182.453C912.278 180.475 910.438 179.204 908.884 181.609C907.333 184.011 909.028 186.981 904.786 184.293C900.548 181.609 900.124 182.033 900.972 177.226C901.816 172.418 901.816 172.418 899.555 170.299C897.295 168.176 894.748 168.6 894.748 165.492C894.748 162.384 896.164 164.358 896.588 160.119C897.012 155.881 897.153 148.107 899.414 155.74C901.674 163.369 899.273 165.351 905.069 164.644C910.865 163.938 908.605 164.644 910.296 166.343C911.995 168.039 912.137 164.22 908.318 162.67C904.5 161.112 900.399 159.982 904.783 158.851C909.166 157.721 899.128 155.461 905.348 152.914C911.568 150.371 913.122 150.229 914.252 153.762C915.386 157.297 920.896 153.055 921.885 158.993C922.874 164.93 921.179 166.484 925.559 169.31C929.942 172.139 933.757 177.084 930.931 169.734C928.102 162.387 928.526 163.09 927.395 159.275C926.262 155.461 929.515 157.439 923.577 155.178C917.64 152.918 921.882 153.903 916.933 150.94C911.988 147.973 910.854 151.929 911.423 145.708C911.988 139.488 907.605 138.641 913.966 138.217C920.328 137.796 916.796 140.763 920.328 137.797C923.86 134.826 922.733 133.978 925.135 136.242L929.113 137.061Z" fill="#EC8C6F" fill-opacity="0.05"/>
<path d="M1193.99 257.489C1197.33 262.141 1195.41 257.772 1198.8 263.427C1202.19 269.082 1202.76 268.234 1203.89 272.19C1205.02 276.15 1207.57 277.563 1210.1 280.957C1212.65 284.348 1211.52 288.304 1211.8 290.568C1212.09 292.829 1216.61 293.111 1216.61 295.375C1216.61 297.636 1209.54 292.263 1209.54 295.375C1209.54 297.708 1209.07 299.723 1210.14 302.012C1210.5 302.776 1211.03 303.57 1211.8 304.421C1214.91 307.812 1218.3 309.228 1218.59 311.203C1218.87 313.181 1214.35 307.247 1214.06 309.79C1213.79 312.333 1210.67 310.076 1214.35 317.14C1218.02 324.208 1218.02 322.227 1223.11 325.904C1228.2 329.581 1233 328.45 1231.03 331.841C1229.05 335.236 1224.52 332.406 1224.81 336.648C1225.09 340.887 1221.41 343.434 1220 338.626C1218.59 333.819 1214.63 330.711 1216.89 336.931C1219.15 343.151 1218.03 343.999 1221.14 347.107C1224.24 350.219 1224.81 351.346 1224.53 354.175C1224.24 357.001 1221.14 355.87 1223.12 362.09C1225.09 368.311 1224.81 366.615 1224.53 372.553C1224.24 378.49 1224.24 379.62 1221.14 380.747C1218.03 381.881 1219.15 384.986 1214.07 387.536C1208.98 390.079 1212.66 386.688 1208.41 387.536C1204.17 388.384 1201.63 384.428 1199.93 391.209C1198.24 397.995 1197.67 395.452 1193.99 400.255C1190.32 405.062 1184.1 410.717 1185.23 400.255C1186.36 389.8 1182.97 386.221 1188.63 385.888C1194.28 385.558 1194.56 378.49 1197.95 378.49C1201.35 378.49 1202.76 383.015 1204.74 378.773C1206.72 374.534 1202.23 373.118 1208.29 371.705C1214.35 370.292 1214.91 375.099 1215.19 368.597C1215.48 362.094 1213.5 363.51 1216.61 359.551C1219.72 355.591 1216.89 355.309 1216.61 351.632C1216.33 347.958 1212.65 345.129 1212.09 339.478C1211.52 333.823 1218.02 332.127 1214.06 327.32C1210.1 322.513 1209.54 322.513 1209.82 314.032C1210.1 305.551 1206.72 301.027 1205.02 293.115C1203.32 285.199 1205.87 286.333 1202.19 282.087C1198.52 277.849 1199.37 274.172 1197.11 270.781C1194.84 267.387 1195.69 268.234 1192.86 263.144C1190.04 258.055 1192.57 255.508 1193.99 257.489Z" fill="#EC8C6F" fill-opacity="0.05"/>
<path d="M846.57 629.224C848.903 632.075 842.045 631.767 841.48 640.817C840.915 649.859 838.934 652.685 846.57 653.536C854.203 654.384 858.438 653.819 859.007 649.015C859.572 644.208 849.678 646.468 859.007 637.423C868.339 628.377 866.357 628.094 868.056 621.312C869.752 614.527 874.555 612.546 872.577 607.459C870.599 602.373 872.012 587.107 866.922 597.001C861.836 606.891 865.788 613.111 858.438 613.111C851.091 613.111 844.588 616.509 845.154 621.03C845.719 625.551 844.027 626.116 846.57 629.224Z" fill="#EC8C6F" fill-opacity="0.05"/>
<path d="M1192.86 615.093C1196.25 617.071 1197.85 612.912 1197.81 612.546C1197.6 609.963 1194.17 607.706 1201.34 603.5C1209.54 598.696 1206.71 599.827 1213.79 598.696C1220.85 597.563 1222.55 595.019 1226.5 598.696C1230.46 602.373 1229.61 598.475 1225.66 605.232C1221.7 611.981 1218.31 612.55 1224.24 615.944C1230.18 619.335 1229.61 616.788 1232.44 621.595C1235.27 626.403 1234.7 630.645 1238.66 625.841C1242.62 621.034 1245.73 627.25 1246.3 619.335C1246.86 611.416 1244.31 610.289 1246.3 606.895C1248.27 603.504 1248.27 588.803 1251.66 594.175C1255.06 599.544 1251.66 603.5 1255.62 608.025C1259.58 612.546 1262.13 607.742 1261.28 613.962C1260.43 620.183 1257.36 620.748 1261.44 626.682C1265.52 632.623 1262.98 632.905 1268.06 635.731C1273.15 638.557 1273.72 636.575 1273.72 642.795C1273.72 649.019 1270.89 646.755 1276.83 652.406C1282.76 658.058 1283.89 650.428 1284.46 661.169C1285.03 671.914 1285.59 671.914 1284.46 678.982C1283.33 686.046 1285.03 681.525 1280.5 690.85C1275.98 700.178 1272.02 696.222 1271.74 705.551C1271.46 714.883 1271.46 713.184 1266.93 717.708C1262.41 722.23 1263.82 726.189 1260.15 729.58C1256.47 732.974 1257.32 729.58 1250.82 734.387C1244.32 739.191 1242.7 740.321 1240.96 736.083C1239.23 731.84 1242.06 729.297 1236.12 732.406C1230.18 735.514 1234.99 736.927 1228.77 734.105C1222.55 731.275 1220.57 736.083 1220.57 729.297C1220.57 722.512 1223.68 720.534 1220.29 718.274C1216.89 716.009 1217.75 708.094 1217.75 704.707C1217.75 701.309 1214.92 698.2 1213.22 703.573C1211.53 708.942 1203.9 720.813 1203.9 710.641C1203.9 700.465 1201.91 701.026 1199.93 698.2C1197.96 695.378 1194.85 689.437 1187.78 692.263C1180.71 695.092 1186.08 696.632 1177.32 696.143C1168.56 695.654 1164.32 695.936 1162.05 698.765C1159.79 701.591 1161.49 706.112 1156.12 703.573C1150.75 701.026 1147.35 699.048 1143.11 703.573C1138.87 708.094 1141.98 713.18 1134.07 708.942C1126.15 704.703 1119.09 708.376 1123.61 701.874C1128.13 695.375 1129.26 695.936 1128.7 691.694C1128.13 687.456 1123.61 686.89 1125.02 681.518C1126.43 676.146 1127 672.19 1127 670.777C1127 669.36 1127.85 673.928 1126.71 665.85C1125.58 657.771 1124.73 659.467 1126.43 654.381C1128.13 649.294 1128.7 646.744 1131.8 644.201C1134.91 641.658 1132.08 639.68 1141.41 638.263C1150.74 636.847 1150.18 639.111 1155.83 633.742C1161.48 628.37 1157.53 626.109 1163.75 625.827C1169.96 625.54 1169.4 628.084 1171.09 622.146C1172.79 616.208 1170.24 611.687 1173.64 614.799C1177.03 617.907 1174.48 620.454 1178.44 614.799C1182.97 602.37 1189.47 613.111 1192.86 615.093Z" fill="#EC8C6F" fill-opacity="0.05"/>
<path d="M1234.13 749.089C1232.63 751.056 1229.05 751.632 1232.44 758.631C1235.83 765.627 1233.5 768.38 1236.68 769.017C1239.86 769.651 1237.74 764.565 1242.19 761.384C1246.64 758.207 1247.7 755.447 1248.34 752.48C1248.97 749.517 1245.37 745.695 1243.89 749.093C1242.4 752.48 1242.24 755.451 1239.78 753.969C1237.32 752.48 1235.42 747.412 1234.13 749.089Z" fill="#EC8C6F" fill-opacity="0.05"/>
<path d="M1310.46 797.22C1308.19 799.488 1301.14 792.554 1310.46 788.529C1319.79 784.497 1317.46 784.077 1321.91 780.258C1326.36 776.44 1324.45 776.868 1329.54 775.172C1334.63 773.477 1329.76 776.129 1336.33 769.079C1342.9 762.025 1338.87 757.997 1343.32 760.964C1347.78 763.935 1352.87 762.873 1349.9 766.691C1346.93 770.506 1347.57 768.597 1344.17 772.629C1340.79 776.654 1345.23 780.472 1338.87 782.595C1332.51 784.711 1331.03 781.747 1329.54 786.41C1328.06 791.072 1329.76 796.589 1324.46 797.223C1319.15 797.861 1320.01 799.977 1316.4 800.614C1312.79 801.245 1312.37 795.307 1310.46 797.22Z" fill="#EC8C6F" fill-opacity="0.05"/>
<path d="M1357.11 758.419C1355.43 760.093 1343.11 757.785 1349.05 752.905C1354.99 748.029 1354.99 751.938 1358.16 747.761C1361.35 743.581 1363.04 742.729 1361.56 740.186C1360.08 737.639 1362.2 740.186 1359.86 732.763C1357.53 725.34 1354.78 721.526 1357.32 721.312C1359.86 721.098 1360.74 719.196 1362.1 725.134C1363.47 731.068 1360.71 731.278 1363.47 736.154C1366.22 741.034 1365.17 737.853 1367.71 741.244C1370.25 744.638 1369.61 744.001 1373.01 743.363C1376.4 742.729 1378.31 745.58 1373.85 747.761C1369.4 749.938 1366.64 748.029 1365.59 752.481C1364.53 756.934 1367.07 756.872 1363.47 759.973C1359.86 763.081 1362.83 762.871 1357.96 765.414C1353.08 767.957 1350.32 764.777 1353.71 763.509C1357.11 762.234 1358.38 757.144 1357.11 758.419Z" fill="#EC8C6F" fill-opacity="0.05"/>
<path d="M1058.58 526.682C1052.29 530.279 1053.71 526.895 1064.95 534.949C1076.18 543.005 1073.64 538.977 1075.97 546.824C1078.31 554.667 1078.31 554.029 1082.33 559.543C1086.36 565.053 1089.97 568.024 1093.57 570.357C1097.18 572.686 1103.11 578.2 1103.11 569.295C1103.11 560.391 1098.87 561.452 1097.39 556.572C1095.9 551.696 1093.36 554.667 1089.55 548.302C1085.72 541.944 1089.33 540.459 1080.85 536.644C1072.37 532.822 1069.19 528.16 1066.86 526.678C1064.52 525.196 1060.07 525.83 1058.58 526.682Z" fill="#EC8C6F" fill-opacity="0.05"/>
<path d="M1103.11 576.084C1101.58 577.392 1104.17 573.788 1108.41 574.197C1112.65 574.599 1108.41 575.237 1113.71 576.084C1119.01 576.932 1120.28 577.356 1122.19 576.084C1124.1 574.809 1117.95 572.603 1124.95 575.508C1131.95 578.417 1131.73 575.661 1134.28 578.417C1136.82 581.174 1141.91 586.684 1135.55 584.989C1129.19 583.29 1127.7 581.171 1122.19 582.229C1116.68 583.29 1116.25 582.442 1111.38 581.808C1106.5 581.171 1104.6 579.899 1103.11 578.628C1101.62 577.352 1104.59 574.809 1103.11 576.084Z" fill="#EC8C6F" fill-opacity="0.05"/>
<path d="M1140.63 562.302C1143.42 564.472 1145.51 559.759 1146.99 554.459C1148.48 549.156 1144.03 548.308 1150.18 546.192C1156.32 544.07 1149.96 544.707 1150.18 539.617C1150.39 534.531 1146.15 533.68 1151.24 530.293C1156.32 526.902 1155.98 527.112 1152.86 523.927C1149.75 520.75 1148.06 513.965 1144.88 519.265C1141.69 524.565 1140.21 528.17 1135.76 530.503C1131.3 532.832 1133.21 529.655 1129.18 536.016C1125.16 542.378 1127.91 543.012 1123.88 543.012C1119.85 543.012 1111.16 531.992 1116.67 543.225C1122.19 554.467 1112.86 541.744 1113.71 545.772C1114.55 549.797 1117.31 548.525 1119.43 553.829C1121.55 559.129 1121.13 560.404 1126 561.038C1130.88 561.676 1129.23 560.614 1134.39 563.791C1139.57 566.968 1138.73 560.821 1140.63 562.302Z" fill="#EC8C6F" fill-opacity="0.05"/>
<path d="M1208.7 550.855C1204.9 540.729 1213.79 548.094 1218.87 555.307C1223.96 562.516 1219.93 566.758 1225.87 561.882C1231.81 556.999 1232.23 552.978 1238.38 557.111C1244.53 561.248 1244.96 561.458 1248.98 561.882C1253.01 562.302 1254.49 559.495 1257.67 563.972C1260.86 568.45 1261.7 566.331 1264.88 568.45C1268.06 570.573 1267.64 571.417 1270.61 575.235C1273.57 579.054 1269.55 581.383 1275.48 584.14C1281.42 586.897 1285.87 587.534 1282.69 590.288C1279.51 593.044 1281.21 595.377 1275.27 590.288C1269.33 585.201 1264.46 580.745 1261.49 580.959C1258.52 581.173 1258.31 584.14 1254.28 585.306C1250.25 586.469 1243.47 587.317 1241.56 583.502C1239.65 579.684 1232.23 584.777 1232.44 580.959C1232.65 577.145 1239.01 576.297 1233.08 573.112C1227.14 569.935 1229.05 565.269 1222.48 566.541C1215.9 567.812 1212.93 564.842 1212.93 562.089C1212.93 559.328 1209.12 554.88 1207.63 554.666C1206.15 554.459 1209.33 552.547 1208.7 550.855Z" fill="#EC8C6F" fill-opacity="0.05"/>
<path d="M1159.72 468.167C1155.76 467.671 1151.63 471.344 1155.14 478.133C1158.66 484.914 1147.53 488.095 1156.91 492.337C1166.29 496.579 1168.41 494.033 1166.29 490.428C1164.17 486.824 1159.29 489.367 1163.75 483.219C1168.2 477.071 1168.65 476.01 1167.04 472.195C1165.44 468.377 1165.23 463.504 1163.32 465.624C1161.41 467.743 1161.41 468.377 1159.72 468.167Z" fill="#EC8C6F" fill-opacity="0.05"/>
<path d="M1158.02 554.666C1159.91 557.184 1153.75 554.029 1155.14 561.028C1156.54 568.023 1154.62 570.356 1158.02 572.262C1161.41 574.171 1162.47 571.418 1161.62 567.809C1160.78 564.205 1157.94 558.057 1161.91 560.39C1165.87 562.72 1162.68 561.028 1165.23 566.114C1167.77 571.2 1171.38 574.808 1171.38 571.2C1171.38 567.596 1169.68 566.324 1169.26 561.238C1168.83 556.148 1167.14 552.967 1171.38 554.029C1175.62 555.09 1174.77 549.979 1172.22 549.99C1169.68 550 1170.74 552.123 1166.5 552.33C1162.26 552.543 1164.8 554.453 1162.26 552.543C1159.72 550.638 1150.62 546.823 1160.47 547.457C1170.31 548.091 1176.47 547.457 1174.34 544.914C1172.22 542.371 1170.74 537.52 1166.92 541.005C1163.1 544.49 1160.78 544.277 1158.87 544.277C1156.96 544.277 1150.2 539.868 1153.04 545.889C1155.89 551.91 1156.11 552.123 1158.02 554.666Z" fill="#EC8C6F" fill-opacity="0.05"/>
<path d="M1060 62.9982C1054.12 67.4106 1058.3 74.9349 1063.39 75.6087C1068.48 76.2861 1073.29 84.4806 1076.11 78.8256C1078.94 73.1779 1082.05 68.6532 1085.44 69.7798C1088.83 70.9101 1095.62 74.0183 1095.9 69.2147C1096.18 64.411 1095.9 57.3432 1089.96 59.8863C1084.03 62.433 1082.05 65.5413 1076.39 62.1468C1070.74 58.756 1066.5 53.9487 1065.09 58.1909C1063.67 62.433 1062.26 61.2991 1060 62.9982Z" fill="#EC8C6F" fill-opacity="0.05"/>
<path d="M938.441 80.808C932.395 82.8258 940.702 75.153 936.463 70.6283C932.221 66.1072 927.696 59.0394 933.069 61.0173C938.437 62.9953 937.307 65.2559 941.832 66.6723C946.357 68.0888 954.555 67.52 948.334 72.3273C942.114 77.1346 940.702 81.0905 938.158 81.9382C935.615 82.7859 940.14 80.2356 938.441 80.808Z" fill="#EC8C6F" fill-opacity="0.05"/>
<path d="M930.62 70.3462C930.62 70.3462 928.83 69.4985 925.436 63.5646C922.045 57.627 922.045 60.2353 916.955 56.5293C911.869 52.8233 914.412 56.2142 909.04 49.9941C903.667 43.7776 899.142 36.9923 897.733 45.7555C896.317 54.5151 890.948 54.2362 897.733 59.3224C904.515 64.4159 906.214 61.0215 909.601 65.8251C912.996 70.6324 911.865 72.6104 919.212 72.6104C926.57 72.6104 927.914 73.8421 930.62 70.3462Z" fill="#EC8C6F" fill-opacity="0.05"/>
<path d="M705.224 100.877C704.478 105.336 689.111 96.3557 695.048 105.115C700.982 113.879 701.83 109.64 703.243 117.556C704.659 125.471 705.786 126.319 709.745 129.144C713.701 131.974 714.832 137.629 715.962 131.974C717.096 126.319 717.661 124.341 717.661 120.381C717.661 116.422 718.791 107.945 721.899 114.726C725.011 121.512 729.532 128.297 730.098 122.642C730.663 116.987 728.402 114.44 726.424 112.183C724.446 109.919 713.988 104.833 725.011 104.268C736.032 103.702 734.905 104.76 736.597 99.7103C738.296 94.6567 744.798 94.7726 734.905 94.1495C725.011 93.53 725.859 89.0053 720.487 89.5704C715.118 90.1356 715.4 83.6329 714.27 91.5484C713.136 99.4639 712.571 99.1814 708.898 100.029C705.224 100.877 705.786 97.486 705.224 100.877Z" fill="#EC8C6F" fill-opacity="0.05"/>
<path d="M612.781 238.833C613.281 243.84 608.539 243.072 604.018 242.224C599.493 241.38 602.04 241.659 597.515 238.833C592.99 236.007 591.867 234.591 591.867 231.2C591.867 227.806 588.756 215.087 594.124 220.173C599.497 225.263 598.363 227.237 604.583 224.98C610.803 222.716 612.216 218.477 616.741 221.307C621.262 224.132 624.087 227.458 620.979 230.744C617.867 234.026 612.495 236.007 612.781 238.833Z" fill="#EC8C6F" fill-opacity="0.05"/>
<path d="M641.331 295.371C639.495 291.687 639.919 299.61 636.245 300.179C632.568 300.74 632.003 301.309 632.851 306.96C633.698 312.615 627.359 314.028 632.507 315.724C637.654 317.423 637.654 314.88 641.331 312.333C645.008 309.79 642.748 307.526 645.574 303.287C648.399 299.048 650.098 295.937 647.834 295.371C645.574 294.806 642.462 297.628 641.331 295.371Z" fill="#EC8C6F" fill-opacity="0.05"/>
<path d="M650.381 278.693C644.827 278.262 644.842 288.869 648.881 291.133C652.92 293.394 651.507 289.72 654.337 296.22C657.162 302.722 664.23 303.711 658.575 305.338C652.92 306.961 651.08 304.139 653.837 309.79C656.594 315.445 660.836 313.713 658.293 316.275C655.749 318.836 652.072 317.988 651.225 321.662C650.377 325.339 651.225 323.361 655.184 321.662C659.14 319.97 656.876 319.401 662.249 319.97C667.617 320.535 667.617 320.814 669.599 318.553C671.577 316.289 674.968 313.75 674.689 311.485C674.406 309.225 677.514 315.162 673.272 308.377C669.034 301.592 668.182 298.484 665.357 297.353C662.527 296.219 660.55 296.506 659.702 291.698C658.854 286.891 661.397 285.199 659.702 282.935C658.006 280.675 658.854 271.911 654.616 275.306C650.381 278.693 654.054 278.972 650.381 278.693Z" fill="#EC8C6F" fill-opacity="0.05"/>
<path d="M453.485 67.8752C456.238 71.6898 455.391 76.1421 456.238 71.6899C457.086 67.2376 450.091 65.7523 456.238 64.6909C462.39 63.633 460.904 65.966 464.295 63.633C467.69 61.3 467.052 59.3945 472.356 61.3C477.656 63.2092 476.808 59.8147 474.261 57.2716C471.718 54.7249 470.729 57.2716 466.135 59.601C461.542 61.9376 463.027 64.901 459.633 61.9376C456.242 58.967 453.913 61.7239 451.79 59.8147C449.667 57.9092 449.667 61.5138 447.124 54.5148C444.577 47.5194 448.399 47.7331 448.185 44.1286C447.971 40.5204 443.099 29.9205 454.97 35.0067C466.846 40.0965 463.857 42.2158 468.001 37.9773C472.146 33.7388 467.48 33.5649 474.685 33.6518C481.898 33.7388 475.109 34.1626 484.651 32.2535C494.193 30.3443 494.193 28.8626 497.374 31.192C500.554 33.5286 496.099 30.3443 506.065 33.5286C516.031 36.7093 514.545 37.836 516.241 41.0892C517.936 44.3423 524.721 47.3093 522.812 49.0083C520.903 50.7001 521.327 50.0661 516.241 53.8844C511.151 57.6991 505.003 57.0651 503.942 58.9707C502.884 60.8798 509.506 57.5397 505.003 61.0935C500.5 64.6437 500.127 61.9412 496.736 65.5458C493.342 69.1504 491.009 67.0311 486.556 71.4834C482.104 75.9356 487.183 77.631 481.463 77.4209C475.743 77.2072 476.594 74.9104 473.837 77.439C471.08 79.964 466.063 79.1199 466.135 81.4493C466.208 83.7823 468.541 88.2346 464.719 91.629C460.904 95.0198 457.3 94.1721 456.238 96.0813C455.177 97.9904 455.391 98.2005 450.938 101.805C446.486 105.41 447.971 105.41 447.12 109.014C446.272 112.619 448.605 114.738 441.396 112.832C434.191 110.923 440.121 110.499 432.068 110.923C424.011 111.347 425.069 110.71 421.678 108.594C418.287 106.471 414.259 101.392 412.56 105.203C410.864 109.014 410.013 113.47 414.041 114.952C418.074 116.437 419.555 115.376 423.797 116.227C428.036 117.075 430.369 115.589 433.126 118.35C435.879 121.103 438.212 121.103 435.245 124.708C432.278 128.312 431.64 130.218 428.463 128.312C425.283 126.403 425.917 124.284 419.559 126.193C413.201 128.102 414.194 128.102 411.154 126.831C408.111 125.555 409.807 124.074 404.296 122.592C398.786 121.107 397.511 118.774 400.265 115.593C403.025 112.416 404.717 107.75 403.449 106.475C402.174 105.2 402.387 105.627 399.844 103.084C397.298 100.537 399.786 97.1463 398.862 95.2372C397.939 93.3281 399.21 92.484 405.992 96.0849C412.777 99.6895 412.563 101.809 416.168 97.5702C419.773 93.328 416.806 90.5712 424.015 91.2088C431.22 91.8464 435.252 91.6326 433.981 88.8758C432.705 86.1189 429.746 86.5428 426.779 85.9088C423.805 85.2712 419.142 84.2134 417.229 82.3043C415.32 80.3951 417.653 77.6383 420.41 74.4576C423.167 71.2769 429.528 70.0053 424.862 68.0998C420.196 66.1906 417.867 66.6145 419.776 63.6475C421.685 60.6769 416.809 62.5861 423.171 58.7714C429.532 54.9531 427.623 54.7394 429.532 51.5623C431.438 48.3852 430.804 48.8091 434.405 46.0486C438.013 43.2954 444.581 39.2633 441.614 46.0486C438.647 52.8338 435.886 55.8008 440.552 58.5613C445.218 61.3181 445.642 65.9805 448.399 66.4044C451.152 66.8137 453.485 67.8752 453.485 67.8752Z" fill="#EC8C6F" fill-opacity="0.05"/>
<path d="M390.726 64.266C391.096 67.9503 382.829 64.9036 387.415 69.7797C391.998 74.6559 385.85 79.532 391.998 80.5934C398.149 81.6512 394.164 77.4127 398.595 74.232C403.025 71.0513 402.387 69.3559 400.688 65.3275C398.997 61.2991 399.631 54.9377 395.812 56.8468C391.998 58.756 390.726 58.3321 389.244 60.6615C387.759 62.9981 390.516 62.1468 390.726 64.266Z" fill="#EC8C6F" fill-opacity="0.05"/>
<path d="M404.086 74.4449C401.449 78.9697 402.391 77.7452 404.086 80.7592C405.782 83.7733 399.21 85.6788 404.086 86.1063C408.962 86.5301 410.02 85.0449 410.658 82.5018C411.295 79.955 415.11 80.8063 412.353 76.5642C409.596 72.3257 409.6 69.3551 407.796 70.8368C405.992 72.3257 405.282 72.3836 404.086 74.4449Z" fill="#EC8C6F" fill-opacity="0.05"/>
<path d="M383.944 92.6809C383.944 92.6809 384.524 91.5941 387.415 94.1481C390.302 96.7057 394.755 93.9524 391.998 98.4047C389.244 102.857 389.614 100.734 387.415 104.129C385.212 107.523 387.335 110.914 382.669 111.761C378.003 112.609 375.036 117.061 376.732 111.761C378.431 106.462 382.459 106.255 378.855 105.194C375.246 104.129 371.222 108.153 370.794 103.386C370.37 98.6184 369.312 98.3793 371.856 94.1517C374.402 89.924 373.551 90.1124 376.094 94.1517C378.641 98.1946 378.851 99.2524 380.123 96.2854C381.398 93.3149 382.883 90.7717 383.944 92.6809Z" fill="#EC8C6F" fill-opacity="0.05"/>
<path d="M387.415 112.609C386.589 114.471 384.948 116.638 387.415 117.909C389.878 119.181 391.824 123.206 392.863 119.605C393.91 116 393.668 114.939 394.001 112.609C394.331 110.276 395.215 107.947 392.863 109.215C390.516 110.49 388.342 110.515 387.415 112.609Z" fill="#EC8C6F" fill-opacity="0.05"/>
<path d="M383.731 126.18C382.394 126.68 382.032 130.871 380.55 132.874C379.068 134.874 378.855 133.175 376.522 139.326C374.189 145.474 375.674 146.749 372.493 148.231C369.316 149.716 368.889 149.926 366.769 153.107C364.65 156.291 361.256 155.016 362.531 159.044C363.802 163.073 364.867 165.699 366.345 166.717C367.831 167.735 369.526 168.029 371.645 166.717C373.765 165.406 377.155 170.92 376.945 163.497C376.732 156.077 376.098 155.161 377.159 151.803C378.221 148.445 374.192 144.416 379.702 141.659C385.212 138.902 384.792 139.326 388.607 139.326C392.425 139.326 391.581 139.326 394.439 134.66C397.298 129.994 396.848 128.513 394.001 127.665C391.15 126.817 389.4 124.06 387.415 126.18C385.426 128.303 385.426 125.542 383.731 126.18Z" fill="#EC8C6F" fill-opacity="0.05"/>
<path d="M364.012 147.597C360.122 149.799 359.56 149.502 359.136 145.26C358.712 141.022 359.774 145.684 357.227 140.384C354.684 135.084 351 132.965 355.173 131.903C359.35 130.842 357.651 131.081 359.56 132.871C361.466 134.657 364.436 133.595 364.012 130.418C363.588 127.241 361.125 126.94 364.049 125.394C366.979 123.843 372.066 117.866 373.551 121.068C375.033 124.267 380.336 121.427 377.579 125.394C374.826 129.357 369.522 129.599 371.218 132.871C372.913 136.142 375.67 137.837 372.703 141.232C369.736 144.623 369.526 146.746 367.617 147.807C365.708 148.865 365.422 146.796 364.012 147.597Z" fill="#EC8C6F" fill-opacity="0.05"/>
<path d="M338.784 86.1757C338.244 82.7522 344.511 81.5857 345.352 86.1757C346.2 90.7692 344.508 93.1022 348.536 96.0691C352.565 99.0361 351.887 100.308 353.289 96.0691C354.688 91.8306 352.275 93.7362 355.177 89.4976C358.078 85.2555 364.947 81.4408 362.255 85.2555C359.564 89.0738 356.383 90.7438 359.14 94.1491C361.893 97.5544 362.107 89.686 363.802 94.1491C365.498 98.6159 365.287 98.9057 359.777 102.684C354.264 106.459 355.745 106.256 350.025 105.191C344.298 104.126 346.631 104.347 342.389 105.191C338.15 106.035 328.822 108.864 330.731 105.858C332.636 102.854 338.15 100.945 334.969 99.0361C331.789 97.1306 321.613 96.8915 326.275 94.1455C330.945 91.4032 334.122 94.3701 334.546 89.9179C334.966 85.4692 338.994 87.5197 338.784 86.1757Z" fill="#EC8C6F" fill-opacity="0.05"/>
<path d="M332.807 80.6154C340.161 82.673 340.864 78.7098 341.287 76.6992C341.711 74.6887 345.106 73.9098 344.892 71.5442C344.678 69.175 344.468 67.9324 342.132 69.722C339.802 71.508 342.979 66.237 335.35 69.722C327.717 73.2034 330.05 72.9462 326.022 74.5583C321.993 76.1703 321.779 72.3484 319.236 76.6992C316.69 81.0501 308.731 78.9272 316.632 82.9556C324.536 86.9876 326.022 87.0202 327.927 84.2489C329.84 81.4739 328.992 79.5467 332.807 80.6154Z" fill="#EC8C6F" fill-opacity="0.05"/>
<path d="M360.194 78.3192C362.752 79.3807 362.915 77.2035 364.737 74.8705C366.556 72.5411 370.374 68.3279 368.044 68.6322C365.708 68.9365 366.559 65.7558 360.198 67.665C353.84 69.5705 350.196 65.8283 353.289 70.4581C356.383 75.0842 357.017 76.6347 357.865 77.3448C358.712 78.0512 358.289 77.5223 360.194 78.3192Z" fill="#EC8C6F" fill-opacity="0.05"/>
<path d="M370.214 65.328C368.581 62.5313 366.306 63.6325 364.737 62.5711C363.165 61.5097 360.853 59.394 365.824 60.662C370.794 61.9372 367.407 59.8759 371.856 60.2707C376.308 60.662 378.427 62.7848 376.094 65.328C373.761 67.8747 370.262 69.5991 370.211 68.6282C370.164 67.661 371.327 67.2371 370.214 65.328Z" fill="#EC8C6F" fill-opacity="0.05"/>
<path d="M1174.76 508.235C1171.01 506.866 1162.14 513.322 1167.89 515.582C1173.64 517.846 1175.05 512.76 1176.18 515.582C1177.31 518.408 1168.83 516.43 1176.18 521.237C1183.53 526.041 1186.94 526.606 1185.09 522.65C1183.25 518.69 1183.26 514.532 1185.09 516.752C1186.92 518.973 1190.03 520.752 1188.05 516.752C1186.07 512.756 1185.8 513.043 1185.09 509.645C1184.38 506.254 1185.22 506.823 1182.4 508.232C1179.58 509.648 1177.87 509.362 1174.76 508.235Z" fill="#EC8C6F" fill-opacity="0.05"/>
<path d="M135.323 256.084C133.421 258.601 131.683 260.95 130.068 263.173L125.87 262.042C126.436 261.341 126.931 260.694 127.271 260.264C127.521 259.945 127.555 259.555 127.346 259.397L125.487 257.992C125.279 257.835 124.911 257.973 124.673 258.301C124.202 258.949 123.348 260.013 122.546 261.152L119.714 260.393C120.367 259.594 120.948 258.842 121.326 258.357C121.576 258.039 121.608 257.65 121.398 257.492L119.539 256.088C119.332 255.931 118.967 256.068 118.729 256.396C118.219 257.095 117.28 258.273 116.427 259.508L114.407 258.968L107.893 257.22C107.548 257.087 107.12 257.238 106.858 257.584L104.591 260.585C104.256 261.029 104.315 261.621 104.724 261.857L123.347 272.721C119.665 278.161 117.068 282.408 115.241 285.697L107.098 285.296C106.954 285.275 106.734 285.415 106.562 285.643L105.082 287.603C104.862 287.893 104.808 288.21 104.962 288.282L112.228 291.727C111.752 292.846 111.441 293.714 111.245 294.368C109.514 296.493 108.215 298.428 108.808 298.876C109.404 299.327 110.916 297.537 112.488 295.286C113.062 294.916 113.808 294.381 114.747 293.622L117.785 297.086L120.065 299.688C120.177 299.816 120.466 299.677 120.686 299.387L122.166 297.427C122.338 297.2 122.415 296.947 122.353 296.817L119.73 289.064C122.397 286.409 125.775 282.751 129.994 277.731L138.642 286.049L145.544 292.687C145.883 293.016 146.469 292.911 146.806 292.465L149.073 289.464C149.333 289.12 149.362 288.667 149.141 288.369L144.607 280.79C145.56 279.63 146.435 278.403 146.97 277.723C147.22 277.404 147.252 277.016 147.045 276.859L145.186 275.455C144.978 275.298 144.612 275.434 144.375 275.763C144.013 276.259 143.448 277.023 142.858 277.869L141.353 275.352C142.23 274.27 143.017 273.159 143.513 272.526C143.763 272.208 143.797 271.817 143.589 271.66L141.73 270.256C141.523 270.099 141.154 270.237 140.916 270.565C140.594 271.008 140.108 271.663 139.589 272.399L137.347 268.657C139.069 266.464 140.878 264.118 142.806 261.566C149.415 252.817 146.671 248.751 146.671 248.751C146.671 248.751 141.93 247.341 135.323 256.084Z" fill="#EC8C6F" fill-opacity="0.3"/>
<path d="M1318.16 17.358C1318.54 17.3832 1319.09 17.4733 1319.79 17.7296C1321.47 18.347 1324.09 19.9673 1327.27 24.1729L1318.16 17.358ZM1318.16 17.358C1318.08 17.7212 1318.01 18.2542 1318.06 18.9666C1318.17 20.7113 1318.99 23.643 1322.17 27.853C1324.09 30.3977 1325.89 32.7365 1327.61 34.9226L1328.25 35.7314L1327.72 36.6134L1325.48 40.3551L1324.3 42.3245L1322.97 40.4484C1322.67 40.0162 1322.38 39.6154 1322.12 39.2654L1321.92 39.4162C1322.01 39.5331 1322.1 39.6531 1322.19 39.7764C1322.59 40.3173 1323.04 40.9205 1323.59 41.6005L1324.25 42.4118L1323.71 43.3076L1322.21 45.8242L1321.02 47.8085L1319.7 45.9122C1319.33 45.3823 1318.97 44.8862 1318.66 44.4656L1318.47 44.614C1318.56 44.7331 1318.65 44.8562 1318.74 44.9829C1319.2 45.5957 1319.72 46.2924 1320.33 47.0292L1321 47.8421L1320.46 48.7451L1316.11 56.0213L1317.78 58.2407L1324.1 52.1604L1324.1 52.1604L1332.75 43.8423L1333.9 42.7344L1334.93 43.9578C1339.13 48.9515 1342.48 52.5756 1345.11 55.1929L1345.77 55.8494L1345.47 56.7308L1343.01 63.9854L1343.59 64.7516L1344.87 63.2898L1344.87 63.289L1347.91 59.8251L1348.86 58.7463L1349.97 59.6482C1350.11 59.7592 1350.24 59.8648 1350.37 59.9654C1350.31 59.8164 1350.25 59.6618 1350.18 59.5012L1349.62 58.1804L1350.91 57.5654L1356.81 54.7693L1356.23 54.0028L1348.61 54.3785L1347.69 54.4243L1347.23 53.6115C1345.43 50.3689 1342.86 46.1589 1339.2 40.7467L1338.3 39.4233L1339.68 38.6181L1357.61 28.16L1355.94 25.9429L1349.76 27.5996L1349.76 27.6L1347.74 28.1403L1346.72 28.4124L1346.13 27.5459C1345.57 26.7457 1345.02 26.0203 1344.54 25.3929C1344.47 25.2905 1344.39 25.1908 1344.32 25.0937L1344.12 25.2443C1344.44 25.6545 1344.82 26.1352 1345.23 26.6355L1346.69 28.4258L1344.45 29.0245L1341.62 29.7839L1340.61 30.0542L1340.01 29.2009C1339.51 28.4849 1339.05 27.8818 1338.64 27.3434C1338.54 27.2248 1338.46 27.1094 1338.37 26.9966L1338.17 27.1479C1338.44 27.4887 1338.74 27.8739 1339.07 28.2909L1340.52 30.0762L1338.3 30.6733L1334.1 31.8043L1333.11 32.0719L1332.5 31.2396C1330.9 29.0243 1329.16 26.6829 1327.27 24.1732L1318.16 17.358ZM1342.59 65.894L1342.59 65.8915L1342.59 65.894ZM1321.66 38.632C1321.66 38.6321 1321.66 38.6322 1321.66 38.6323L1321.66 38.632Z" fill="#FADDD4" stroke="#FADDD4" stroke-width="2.98897"/>
<path d="M-5 352C1 348 39 360.5 102 306" stroke="#FADDD4" stroke-dasharray="4 4"/>
<path d="M1468 116C1462 112 1424 124.5 1361 70" stroke="#FADDD4" stroke-dasharray="4 4"/>
</svg>
