<svg width="454" height="147" viewBox="0 0 454 147" fill="none" xmlns="http://www.w3.org/2000/svg">
<path fill-rule="evenodd" clip-rule="evenodd" d="M232.523 -187.363C298.382 -191.855 364.256 -172.231 410.495 -139.579C456.243 -107.273 474.394 -62.0021 473.994 -16.8481C473.596 27.9979 454.697 72.9444 408.333 104.392C362.303 135.613 297.076 146.102 232.523 146.936C166.48 147.79 98.0078 140.311 50.001 109.021C0.879677 77.0059 -26.2531 29.4753 -18.7705 -16.8481C-11.8654 -59.5958 42.1303 -87.3189 86.5888 -117.486C130.472 -147.263 171.258 -183.184 232.523 -187.363Z" fill="#F14249" fill-opacity="0.05"/>
<g clip-path="url(#clip0_20_59)">
<path d="M13.0745 13.2901C14.3442 11.5984 15.2245 11.5307 11.9024 8.59938C8.58038 5.66802 6.82106 5.47269 7.40709 2.54258C7.99311 -0.390033 6.0397 0.00188615 8.58038 -1.17016C11.1198 -2.34345 10.7291 -2.53754 15.4198 -3.32015C20.1092 -4.10151 25.1906 -4.29686 20.8906 -6.25152C16.5919 -8.20618 16.6758 -5.85958 14.8751 -9.7689C13.0745 -13.6782 9.55709 -14.4596 16.2012 -14.4596C22.8453 -14.4596 22.4558 -17.0003 22.8453 -14.4596C23.2372 -11.9201 27.9266 -9.37822 25.7779 -14.0689C23.6279 -18.7583 19.3279 -18.563 22.6512 -20.9083C25.9732 -23.2524 26.3639 -23.2524 28.9046 -23.8397C31.444 -24.4257 28.5127 -24.621 33.9859 -26.185C39.458 -27.749 38.0894 -28.921 41.2173 -26.185C44.3428 -23.4478 43.3661 -21.1037 46.4928 -20.713C49.6207 -20.3211 49.0334 -25.5978 50.7928 -19.9316C52.5521 -14.2655 50.2055 -14.4596 54.7021 -12.7003C59.1962 -10.9409 55.2868 -9.57355 59.7834 -12.1142C64.2775 -14.6537 62.7148 -17.7816 65.8415 -14.8503C68.9682 -11.9202 66.6241 -12.5062 71.7055 -11.3329C76.7868 -10.1608 77.7623 -8.47915 76.9809 -7.26829C76.1996 -6.05617 74.1372 -3.90742 77.2201 -2.73413C80.303 -1.56208 79.5216 -4.49345 82.6483 -1.95277C85.775 0.587908 84.603 3.71462 88.903 -0.388785C93.2017 -4.49219 91.2471 -3.32014 94.1784 -0.193437C97.111 2.93327 93.9843 1.95656 98.4784 -0.193437C102.973 -2.34218 101.8 -1.36548 104.927 -0.193437C108.054 0.979859 109.813 -7.22947 109.227 0.587917C108.64 8.4053 109.423 2.932 113.526 2.34723C117.631 1.76121 118.607 3.32393 117.631 4.69132C116.653 6.05995 116.262 9.18666 111.963 9.96802C107.664 10.7506 109.618 9.18666 104.342 13.2901C99.0657 17.3947 102.583 17.982 97.8924 21.4981C93.203 25.0155 94.5704 27.7528 96.1331 29.7075C97.6971 31.6621 101.02 27.1668 101.8 32.6388C102.583 38.1109 104.146 33.4202 105.513 39.4782C106.882 45.5351 108.249 49.8351 109.032 45.341C109.813 40.8456 109.813 40.455 109.618 37.9143C109.423 35.3736 115.481 39.8689 114.699 35.177C113.917 30.4876 111.767 34.3956 113.917 29.3143C116.067 24.2329 116.653 25.6015 116.848 22.6702C117.043 19.7388 120.562 15.0481 121.929 18.3702C123.298 21.6922 119.193 20.3248 121.929 22.6702C124.665 25.0143 126.033 21.4969 125.447 25.9922C124.861 30.4863 126.425 34.0037 128.184 30.6817C129.943 27.3596 127.792 22.6702 130.528 26.3829C133.265 30.0956 133.265 31.4643 132.873 33.8084C132.483 36.1537 129.161 37.913 131.506 39.4757C133.851 41.0397 132.679 39.6711 133.851 41.0397C135.025 42.4071 138.541 39.6711 136.001 43.9711C133.462 48.2711 137.956 52.3732 133.462 51.0058C128.967 49.6385 131.507 46.3164 127.012 49.4419C122.518 52.5686 125.448 48.8559 125.448 53.7419C125.448 58.6279 129.553 58.0406 123.689 59.408C117.826 60.7754 119.39 56.672 116.653 61.3627C113.917 66.0521 118.021 65.6627 112.94 67.6173C107.859 69.5707 108.25 72.308 106.686 74.8474C105.123 77.3881 101.214 73.48 100.433 81.2962C99.6505 89.1136 100.041 92.2403 99.4551 90.481C98.8704 88.7216 98.0878 87.9403 98.0878 87.9403C98.0878 87.9403 97.6971 88.7216 95.5483 87.1589C93.3983 85.5962 101.02 82.0775 91.8356 83.8369C82.6496 85.5962 86.5589 87.5496 82.0648 86.9636C77.5695 86.3763 71.5114 87.1589 73.4661 92.631C75.4207 98.1042 78.9381 97.3216 79.9148 101.23C80.8915 105.138 86.3636 107.875 84.9962 101.23C83.6288 94.5856 89.1008 92.0449 88.9055 95.7577C88.7101 99.4716 88.5136 99.0797 89.1008 103.769C89.6868 108.46 86.1695 106.506 91.6415 107.483C97.1135 108.46 91.0542 114.323 95.5508 115.3C100.045 116.277 98.2869 113.346 101.023 115.3C103.759 117.255 104.15 118.252 104.931 115.506C105.712 112.76 112.162 107.678 111.77 111.783C111.378 115.887 114.703 113.737 116.655 113.541C118.61 113.347 117.633 109.83 122.323 114.128C127.013 118.428 125.059 116.157 128.771 117.195C132.485 118.232 130.14 117.255 133.071 120.771C136.003 124.29 140.887 122.727 140.497 126.635C140.107 130.543 139.911 128.004 140.107 130.543C140.303 133.084 137.567 134.647 142.647 132.498C147.728 130.349 147.728 127.027 150.269 132.498C152.808 137.97 151.245 133.673 155.74 134.648C160.235 135.625 161.994 134.453 160.235 138.753C158.476 143.051 162.19 141.489 158.28 146.961C154.371 152.433 153.59 154.191 154.371 158.296C155.154 162.399 159.843 162.595 150.852 163.18C141.864 163.768 141.081 163.18 141.472 169.044C141.864 174.907 141.668 174.712 138.931 177.643C136.195 180.573 134.633 181.356 134.828 183.115C135.023 184.873 133.264 185.068 130.333 186.24C127.403 187.414 126.034 186.24 125.643 189.563C125.251 192.885 126.229 191.713 123.298 193.276C120.367 194.839 122.712 193.276 123.884 196.013C125.056 198.75 123.689 199.725 122.517 200.116C121.343 200.505 118.412 198.358 121.343 200.505C124.276 202.655 126.034 203.046 124.276 204.415C122.517 205.782 120.171 204.415 121.735 205.977C123.299 207.541 127.598 208.127 126.231 209.299C124.862 210.473 121.735 206.76 122.321 210.473C122.909 214.185 124.276 212.037 124.862 215.555C125.448 219.073 129.945 218.681 126.426 219.755C122.909 220.831 123.689 223.762 118.217 218.095C112.746 212.429 110.596 219.072 112.355 209.887C114.113 200.701 114.113 200.31 113.332 198.357C112.55 196.402 109.033 200.896 112.16 193.472C115.286 186.044 115.873 188.586 112.941 184.09C110.01 179.596 105.516 182.528 110.01 178.228C114.505 173.928 113.137 175.687 111.964 170.018C110.792 164.352 110.988 164.352 111.573 161.421C112.16 158.49 115.091 157.121 111.182 155.363C107.274 153.604 109.228 153.994 106.882 150.868C104.536 147.741 106.686 154.776 102.778 147.741C98.8691 140.706 102.583 144.223 97.8912 139.533C93.2017 134.842 89.4878 139.141 93.2017 133.67C96.9145 128.198 98.6738 128.784 98.4784 124.679C98.2831 120.576 99.6505 120.967 96.9157 119.403C94.1784 117.839 93.789 118.231 91.8343 115.104C89.8797 111.976 92.0297 114.126 88.5123 111.39C84.9949 108.653 89.9899 110.998 84.0733 108.653C78.1555 106.307 79.5229 104.159 77.1775 105.526C74.8322 106.893 78.1555 108.067 72.6834 106.307C67.2114 104.549 69.7521 107.284 65.6474 103.181C61.544 99.0759 61.3487 98.4711 61.3487 96.8183C61.3487 95.1679 62.3254 92.2365 59.0033 87.9365C55.6813 83.6378 59.0033 82.0738 55.2894 80.7064C51.5766 79.339 52.358 77.5797 52.5546 82.0738C52.7499 86.5679 55.094 88.5225 54.7046 91.4539C54.3126 94.3853 54.1173 95.8478 51.1872 89.3515C48.2558 82.8551 48.0605 86.3725 46.8872 80.9017C45.7152 75.4297 46.6919 83.4412 44.9325 73.8657C43.1745 64.289 37.5071 64.6797 42.3931 58.0356C47.2779 51.3915 49.2325 52.5636 47.4745 46.7008C45.7164 40.8381 48.6465 44.5509 45.7164 38.2974C42.785 32.0428 47.0838 29.308 44.3478 27.3533C41.6117 25.3987 44.7397 24.0313 41.0257 20.122C37.313 16.2139 43.7618 15.6279 36.1397 13.2826C28.5177 10.9385 31.8397 13.4779 27.1503 10.9385C22.4608 8.3978 24.413 7.61643 19.7236 11.5232C15.0329 15.4326 17.9643 16.6046 13.6655 18.1673C9.3655 19.7326 6.82607 23.0546 4.67607 23.0546C2.52607 23.0546 -3.72733 24.8127 3.1121 19.9266C9.94902 15.0494 8.97107 18.7621 13.0745 13.2901Z" fill="#EC8C6F" fill-opacity="0.05"/>
<path d="M122.954 13.5848C121.113 12.8209 120.022 11.6789 118.997 13.5848C117.971 15.4893 118.409 15.4893 120.169 15.4893C121.928 15.4893 123.686 15.1963 123.98 17.3952C124.273 19.594 123.101 18.7137 125.885 20.0323C128.67 21.3521 131.894 25.309 131.456 22.8184C131.015 20.3265 128.377 19.4475 130.136 19.008C131.894 18.5672 134.827 22.9248 132.921 18.1089C131.016 13.2918 128.816 13.3581 130.869 12.593C132.921 11.8267 130.428 11.3872 134.386 13.4383C138.343 15.4906 140.249 15.9301 138.929 12.8522C137.61 9.77438 135.998 10.5069 135.265 8.01505C134.533 5.52446 135.265 8.89534 134.533 4.35117C133.8 -0.191757 135.558 0.101245 133.36 -1.51157C131.162 -3.12438 133.067 0.247758 131.162 -3.12437C129.256 -6.49525 128.67 -2.97787 128.23 -7.22903C127.79 -11.4789 128.815 -13.9708 126.471 -12.5057C124.126 -11.0407 127.79 -8.69535 124.126 -11.0407C120.462 -13.3848 122.661 -14.9976 119.142 -14.2651C115.625 -13.5313 118.995 -13.2383 115.625 -10.7464C112.254 -8.25458 110.935 -6.49526 113.426 -4.59069C115.918 -2.68486 114.453 -4.44418 117.236 -1.65932C120.021 1.12554 118.555 -1.07331 122.22 -0.0465149C125.884 0.980276 126.473 0.246495 125.74 3.76388C125.003 7.28127 126.473 6.25448 125.74 8.74633C125.003 11.2382 124.712 10.9452 123.831 12.265C122.954 13.5848 124.965 14.42 122.954 13.5848Z" fill="#EC8C6F" fill-opacity="0.05"/>
<path d="M146.55 -29.2141C146.087 -27.8229 144.205 -29.2229 141.86 -27.8267C139.515 -26.4292 139.808 -26.1362 141.86 -25.1107C143.912 -24.0851 148.602 -23.7921 145.817 -22.9131C143.032 -22.0328 138.999 -24.5259 140.209 -22.0328C141.42 -19.541 141.142 -21.0073 143.333 -19.1014C145.524 -17.1956 143.327 -19.248 147.282 -16.9026C151.241 -14.5573 151.241 -15.7143 151.241 -13.3777C151.241 -11.0411 150.8 -13.0922 151.241 -8.6958C151.681 -4.29813 152.266 -5.14961 151.241 -2.74541C150.215 -0.341222 151.681 -2.68531 152.413 0.392554C153.146 3.46917 153.878 1.85761 151.094 3.32392C148.309 4.78898 149.188 4.78898 150.508 6.6948C151.828 8.59937 149.776 8.59937 149.335 10.7995C148.895 12.997 150.948 13.29 149.042 16.0762C147.136 18.861 147.429 17.2482 149.335 21.3529C151.241 25.4563 150.672 25.7493 153.081 27.2156C155.49 28.6819 157.543 33.0783 158.129 27.9481C158.716 22.8179 158.275 23.8435 160.033 21.6446C161.793 19.447 158.715 19.0075 164.43 17.1017C170.146 15.1971 166.922 16.0762 171.466 12.8518C176.009 9.62616 174.104 11.9715 178.355 9.33439C182.607 6.69604 182.753 5.71058 182.166 4.59112C181.58 3.47042 180.027 2.00536 182.416 2.88439C184.804 3.76467 187.737 5.66925 185.977 2.00536C184.219 -1.65853 180.261 -0.458937 184.073 -2.74417C187.884 -5.03066 187.59 -5.17716 187.444 -6.34921C187.297 -7.5225 189.203 -5.32367 189.35 -8.69455C189.496 -12.0654 188.176 -12.0654 189.35 -13.8247C190.522 -15.5841 192.867 -12.2119 191.402 -16.1688C189.936 -20.127 188.323 -20.127 191.109 -23.2049C193.894 -26.2827 193.015 -25.9997 194.626 -27.8267C196.239 -29.6549 196.386 -27.8943 197.411 -31.4117C198.437 -34.9303 199.756 -36.5419 197.411 -34.9303C195.066 -33.3175 197.704 -35.3698 192.72 -33.171C187.737 -30.9734 187.59 -29.9466 186.563 -29.9466C185.538 -29.9466 193.452 -34.7187 192.133 -35.5576C190.815 -36.3966 191.84 -36.9188 189.055 -35.5576C186.27 -34.1978 185.245 -33.0245 186.417 -35.3698C187.59 -37.7152 187.883 -35.7042 189.496 -37.9556C191.108 -40.207 190.815 -39.7675 191.987 -39.328C193.159 -38.8885 194.918 -40.6465 191.694 -41.5268C188.469 -42.4058 191.402 -42.2581 188.176 -44.0174C184.952 -45.7767 187.297 -47.0953 182.313 -45.336C177.33 -43.5766 180.848 -43.4301 177.183 -44.3104C173.518 -45.1907 172.347 -44.8964 171.907 -42.6989C171.466 -40.5 172.786 -38.1547 170.442 -39.7675C168.096 -41.3803 168.976 -45.7767 168.096 -41.3803C167.217 -36.9826 164.725 -32.5862 164.725 -36.5431C164.725 -40.5 166.485 -43.7244 163.553 -41.9663C160.622 -40.207 160.622 -39.914 159.449 -40.5C158.277 -41.0873 158.423 -42.9919 156.958 -39.914C155.492 -36.8361 156.517 -35.9571 154.611 -36.3966C152.707 -36.8361 150.948 -39.7675 150.362 -36.5431C149.774 -33.3187 150.8 -36.1036 150.946 -32.7327C151.093 -29.3618 150.946 -28.3351 149.333 -29.6549C147.722 -30.9722 146.843 -30.0919 146.55 -29.2141Z" fill="#EC8C6F" fill-opacity="0.05"/>
<path d="M299.376 -12.9937C300.257 -13.9717 299.964 -14.5565 298.4 -15.3391C296.837 -16.1217 293.025 -16.6088 295.565 -18.5635C298.105 -20.5181 294.98 -20.1926 298.691 -21.332C302.405 -22.4728 299.181 -21.3972 300.94 -23.4482C302.699 -25.5006 302.601 -25.0122 303.774 -24.4262C304.946 -23.8402 303.872 -26.6726 306.022 -25.4029C308.172 -24.1332 308.367 -25.5006 307.879 -26.4773C307.39 -27.4552 308.758 -27.6506 307.683 -28.2366C306.609 -28.8226 304.459 -28.6273 306.119 -30.8749C307.781 -33.1226 308.954 -35.8586 309.931 -33.0237C310.908 -30.19 311.788 -31.754 312.569 -30.8749C313.352 -29.9947 312.081 -28.2366 313.547 -28.2366C315.012 -28.2366 313.45 -30.4843 316.087 -30.8749C318.725 -31.2669 319.215 -32.6343 320.485 -29.7016C321.755 -26.7715 324.101 -30.6796 321.853 -24.6203C319.605 -18.5635 318.824 -17.3902 319.605 -16.4122C320.387 -15.4355 323.04 -15.2402 322.789 -17.7808C322.537 -20.3203 322.341 -21.6889 324.394 -20.6145C326.445 -19.5389 326.64 -20.0285 327.812 -20.4192C328.986 -20.8111 329.083 -22.0808 331.134 -20.9088C333.187 -19.7355 330.939 -20.2251 333.674 -20.2251C336.411 -20.2251 338.462 -18.9541 338.169 -20.7135C337.877 -22.4728 334.554 -23.6824 337.78 -23.6148C341.004 -23.5472 340.124 -24.1707 343.154 -23.6148C346.183 -23.0576 344.911 -24.8832 345.89 -21.332C346.867 -17.7821 345.4 -18.0739 348.04 -17.2937C350.677 -16.5111 351.264 -14.5565 351.362 -17.1948C351.46 -19.8332 349.407 -20.2239 352.046 -20.2239C354.683 -20.2239 350.189 -21.1693 354.881 -21.3308C359.57 -21.4936 359.962 -19.8319 358.299 -22.9586C356.639 -26.0866 353.706 -27.7482 358.202 -27.3563C362.697 -26.9644 362.11 -25.597 363.283 -26.9644C363.283 -26.9644 362.158 -29.7981 366.263 -28.4795C370.368 -27.1597 368.61 -29.9446 370.368 -27.1597C372.125 -24.3749 371.686 -21.0904 375.057 -23.6123C378.428 -26.1342 375.498 -30.9714 380.187 -27.747C384.878 -24.5226 381.507 -25.488 383.706 -23.6123C385.904 -21.7365 385.758 -21.297 387.662 -22.762C389.568 -24.2283 388.395 -24.3748 391.327 -24.9609C394.259 -25.5481 392.647 -26.1342 394.113 -27.4527C395.578 -28.7713 394.405 -27.7457 396.898 -25.4004C399.39 -23.055 400.856 -22.3225 399.243 -24.9609C397.632 -27.5992 396.751 -27.4527 396.019 -28.7713C395.286 -30.0898 396.751 -30.2363 398.509 -29.505C400.269 -28.7713 396.311 -31.2706 403.054 -30.0936C409.797 -28.919 409.65 -28.3318 411.408 -28.919C413.167 -29.5051 413.46 -31.4096 416.392 -28.3318C419.323 -25.2539 419.763 -25.2539 419.029 -27.1597C418.295 -29.0655 419.616 -33.0299 421.228 -30.0936C422.841 -27.1597 425.479 -28.919 424.452 -25.5481C423.425 -22.1773 425.771 -22.762 425.623 -20.711C425.478 -18.6586 425.185 -16.9006 422.546 -18.3656C419.909 -19.8307 419.761 -21.59 417.856 -19.6842C415.951 -17.7796 416.244 -19.0981 417.564 -17.1923C418.882 -15.2877 419.175 -13.3318 418.442 -12.9912C417.709 -12.6494 417.417 -14.2134 416.098 -12.9912C414.779 -11.7704 415.217 -12.6494 416.684 -11.7704C418.149 -10.8901 418.589 -9.36993 420.787 -8.51845C422.987 -7.66571 424.892 -7.81222 422.987 -6.05415C421.08 -4.29484 420.054 -5.90889 419.616 -3.41579C419.175 -0.923943 417.71 -1.65647 417.564 1.86092C417.417 5.37956 418.882 4.49927 416.098 4.49927C413.311 4.49927 411.994 5.08654 410.674 6.99236C409.355 8.89693 409.795 9.92373 410.821 11.5353C411.846 13.1481 409.941 13.0016 412.286 15.0539C414.632 17.1063 413.311 16.8132 413.018 19.4516C412.727 22.0899 414.779 19.4516 414.045 23.4085C413.311 27.3667 412.141 24.4353 413.311 27.3666C414.486 30.2968 414.338 28.5387 412.725 31.3248C411.114 34.1097 412.139 32.7899 410.673 30.298C409.208 27.8074 409.794 27.3679 407.008 24.5831C404.223 21.7969 402.906 23.4098 404.371 19.4529C405.837 15.4947 406.57 16.375 405.837 14.6169C405.103 12.8576 404.224 15.4959 405.396 11.6843C406.568 7.87515 406.716 6.99487 407.449 4.94254C408.181 2.89021 407.008 3.18322 406.423 0.546123C405.837 -2.09223 404.371 -2.6219 404.517 -0.671001C404.663 1.27865 407.156 0.546116 405.543 3.18447C403.931 5.82282 404.37 6.99612 402.905 4.65078C401.437 2.30544 401 0.693868 400.266 3.03796C399.532 5.3833 401.731 1.71941 399.532 5.3833C397.335 9.04719 400.12 8.46118 399.825 10.8065C399.532 13.1506 396.162 13.0041 395.869 14.6169C395.576 16.2297 396.894 14.2939 395.136 13.063C393.377 11.8321 392.499 11.9485 392.058 13.063C391.617 14.1774 392.205 9.89744 389.859 13.063C387.514 16.2297 387.659 15.0564 386.341 16.375C385.021 17.6948 385.021 19.0133 383.556 21.3587C382.089 23.7028 379.158 22.3842 381.064 25.9016C382.969 29.419 382.822 28.2457 383.995 30.298C385.167 32.3503 385.364 27.4643 387.221 29.2725C389.077 31.0806 383.702 29.0208 389.711 32.8838C395.722 36.748 387.172 33.1818 389.956 35.3794C389.956 35.3794 392.399 35.0876 391.909 39.6794C392.35 46.7154 390.443 41.8782 390.884 47.1537C391.323 52.4304 392.203 50.378 390.298 53.3107C388.392 56.242 389.417 56.535 386.779 56.3885C384.139 56.242 383.408 54.7769 383.701 57.2675C383.993 59.7594 382.088 54.777 382.821 59.3199C383.555 63.8641 379.596 62.2525 381.356 64.4501C383.114 66.6489 382.528 66.0616 384.434 67.5279C386.339 68.9942 387.366 67.3827 386.632 70.0198C385.899 72.6569 385.753 73.9779 383.848 73.2442C381.943 72.5116 383.407 70.7536 381.795 69.579C380.182 68.407 379.742 69.579 379.45 66.9419C379.157 64.3036 379.45 63.571 377.105 63.8641C374.759 64.1571 375.346 65.0361 373.881 65.0361C372.414 65.0361 373.735 65.7686 373.294 63.4233C372.853 61.0779 371.241 61.078 371.095 62.6908C370.949 64.3036 368.31 62.8373 369.042 65.1826C369.775 67.5267 369.775 67.9675 370.655 68.993C371.534 70.0186 371.095 68.5535 373.146 68.2605C375.199 67.9675 377.836 67.9675 375.492 69.2873C373.146 70.6058 370.655 70.1676 372.559 72.5116C374.464 74.8557 373.734 73.5372 374.904 75.736C376.076 77.9336 375.93 77.2011 376.517 78.9604C377.103 80.7185 378.57 80.4254 377.395 82.7708C376.223 85.1149 376.076 87.1672 375.49 88.6335C374.903 90.0986 375.93 91.8579 373.438 93.0312C370.946 94.2032 370.946 93.9102 368.747 94.7893C366.549 95.6695 366.402 96.9881 364.937 97.2811C363.471 97.5741 362.885 96.2556 360.832 97.2811C358.78 98.3066 358.195 97.2811 358.195 100.212C358.195 103.145 361.127 104.61 362.007 105.782C362.886 106.954 361.566 105.782 362.593 109.153C363.619 112.524 364.205 111.938 361.273 113.842C358.342 115.747 359.367 116.629 357.022 113.842C354.677 111.058 353.944 110.325 351.892 110.472C349.839 110.618 348.96 110.765 349.401 113.258C349.841 115.748 349.176 116.775 350.68 118.387C352.185 119.999 352.331 117.801 354.53 121.025C356.729 124.249 358.487 123.225 358.048 125.862C357.608 128.501 357.168 130.26 354.97 127.036C352.771 123.81 351.6 123.64 351.306 122.041C351.012 120.442 351.747 120.732 349.107 118.241C346.47 115.75 345.588 116.483 346.762 113.259C347.935 110.035 347.787 109.594 346.908 107.395C346.029 105.196 346.176 103.29 344.27 104.024C342.365 104.757 341.924 104.611 341.485 103.292C341.045 101.973 342.217 100.654 340.313 100.214C338.407 99.7742 339.287 99.6277 338.407 97.7231C337.528 95.8173 338.114 94.6453 335.476 95.8173C332.837 96.9906 333.276 93.765 331.223 96.9906C329.172 100.215 328.145 101.094 326.68 101.534C325.215 101.974 327.414 100.801 324.043 104.32C320.672 107.837 319.207 106.079 320.378 109.302C321.551 112.526 323.749 112.673 321.551 115.459C319.353 118.244 323.163 117.804 318.327 113.407C313.491 109.009 312.904 111.94 312.171 107.25C311.439 102.559 312.757 104.172 311.146 100.508C309.533 96.8428 307.627 101.241 306.162 97.4301L303.377 93.9127C300.592 90.9814 303.818 90.5419 298.1 91.5674C292.384 92.5942 295.755 92.1772 291.359 91.0665C286.961 89.9558 289.892 90.2488 286.961 89.9558C284.03 89.6628 286.523 91.5686 283.151 88.4908C279.78 85.4129 280.512 85.1199 277.874 85.1199C275.236 85.1199 274.062 86.0002 275.969 87.906C277.874 89.8106 276.702 90.6908 279.633 92.3024C282.565 93.9152 281.246 94.3547 284.323 92.8884C287.401 91.4221 286.669 89.5176 287.694 92.3024C288.719 95.0873 288.719 92.4489 290.625 93.9152C292.531 95.3815 295.169 93.9152 292.677 97.1396C290.187 100.364 291.152 99.3384 289.204 101.244C287.254 103.15 285.642 105.053 283.445 105.494C281.246 105.935 281.1 105.935 279.926 107.84C278.754 109.745 280.952 110.185 277.434 109.745C273.916 109.305 273.331 108.886 271.865 109.902C270.4 110.917 271.279 113.264 269.521 108.28C267.763 103.297 269.374 105.642 266.882 102.418C264.392 99.1932 263.658 99.4862 263.658 97.4339C263.658 95.3815 265.269 97.4339 262.632 94.5025C259.994 91.5711 263.218 93.4757 259.994 90.3978C256.77 87.32 249.587 83.5083 253.399 88.199C257.209 92.8897 256.77 91.1316 258.381 94.5025C259.994 97.8734 257.94 96.4083 260.286 99.0454C262.631 101.684 261.459 102.416 263.217 104.176C264.976 105.935 265.416 105.201 265.709 107.107C266.002 109.013 265.268 110.314 267.763 111.349C270.253 112.384 269.374 112.678 271.718 113.264C274.064 113.849 271.426 113.556 275.237 113.264C279.047 112.971 276.117 113.117 279.047 112.971C281.979 112.824 281.539 111.358 280.219 115.169C278.899 118.979 280.512 116.342 278.899 118.979C277.288 121.617 277.581 119.272 275.969 123.084C274.357 126.894 274.357 125.721 272.451 127.627C270.546 129.531 270.105 129.238 268.932 131.145C267.76 133.05 267.321 130.12 266.001 132.903C264.682 135.688 265.854 132.169 264.682 135.688C263.508 139.207 264.682 136.863 264.974 140.965C265.266 145.068 264.534 144.483 265.706 147.268C266.879 150.053 267.319 150.493 265.413 151.958C263.509 153.424 262.629 151.958 260.578 154.448C258.525 156.94 257.791 156.061 258.086 158.406C258.379 160.752 259.553 161.776 258.526 163.242C257.501 164.707 258.967 164.707 255.889 165.588C252.811 166.468 255.889 166.029 253.103 169.984C250.318 173.942 251.492 171.597 248.707 174.235C245.921 176.872 247.827 175.26 243.87 177.313C239.913 179.366 237.567 181.856 235.222 178.925C232.877 175.993 235.663 179.366 232.877 174.528C230.093 169.691 230.093 172.623 229.947 167.639C229.8 162.655 229.947 163.388 228.628 161.483C227.308 159.577 230.241 160.897 227.015 157.673C223.79 154.447 219.686 157.964 223.79 152.396C227.893 146.826 229.945 147.56 228.334 144.92C226.722 142.283 230.386 143.454 227.454 139.204C224.522 134.953 225.256 136.86 223.936 133.929C222.616 130.996 220.564 132.754 221.444 130.117C222.323 127.479 225.694 124.84 223.057 123.668C220.419 122.495 217.78 121.593 217.047 122.044C216.314 122.495 216.119 119.809 214.947 119.417C213.463 118.923 213.773 119.025 210.842 120.591C207.911 122.153 208.497 121.567 205.565 121.567C202.634 121.567 201.637 122.564 198.716 121.675C195.795 120.785 200.679 122.849 195.012 119.375C189.346 115.9 190.126 119.222 188.368 114.728C186.609 110.232 184.264 112.968 186.024 108.668C187.783 104.37 188.172 106.715 187.391 102.61C186.609 98.5057 184.655 101.223 186.805 96.8353C188.955 92.4489 188.172 94.793 190.127 91.6663C192.082 88.5396 193.646 91.0815 195.795 87.5629C197.945 84.0455 195.599 86.7815 197.357 82.6781C199.117 78.5735 195.207 81.1154 199.117 78.5735C203.026 76.034 200.876 75.0548 204.979 76.2281C209.083 77.4014 202.635 81.1142 209.083 77.4014C215.531 73.6887 212.992 73.1014 217.291 74.0794C221.591 75.0561 218.269 73.4934 221.591 75.0561C224.913 76.6201 221.005 75.8387 223.35 78.7701C225.694 81.7014 220.223 81.1154 225.694 81.7014C231.166 82.2874 226.867 82.484 231.362 84.0468C235.856 85.6107 235.856 90.1036 236.834 85.4142C237.81 80.7235 233.315 78.9654 238.984 80.7235C244.65 82.4828 244.065 82.8722 246.604 82.8722C249.145 82.8722 247.192 82.2862 251.1 82.6781C255.008 83.0688 251.687 87.9536 255.008 83.0688C258.33 78.1828 261.067 76.4247 257.548 75.6434C254.031 74.8607 255.203 75.8387 251.295 75.2514C247.387 74.6654 248.756 77.3451 246.604 73.6599C244.454 69.9747 248.756 69.5828 244.065 68.998C239.374 68.412 239.179 67.2387 239.179 70.5607C239.179 73.8828 239.374 74.6641 236.64 71.3421C233.905 68.0201 238.594 68.998 234.881 65.8701C231.167 62.7434 229.8 63.3306 228.041 62.1586C226.283 60.9853 224.914 56.8819 224.523 59.8132C224.131 62.7446 228.041 64.8946 229.605 66.6527C231.169 68.412 231.169 68.6073 229.8 70.1701C228.433 71.734 227.259 73.2968 227.455 70.9527C227.65 68.6073 227.65 67.4353 225.695 66.6527C223.742 65.8701 227.064 62.548 223.156 62.7433C219.247 62.9387 221.397 65.284 217.684 64.1107C213.971 62.9387 213.19 60.2027 212.407 63.9167C211.626 67.6294 210.063 66.6527 209.281 68.6061C208.499 70.5607 210.845 70.7573 207.523 72.5154C204.2 74.2735 204.786 76.2281 202.05 74.8595C199.314 73.4921 198.142 75.0561 197.556 72.5154C196.969 69.9747 200.272 72.3201 198.72 68.2154C197.166 64.1107 193.648 65.4794 197.166 64.1107C200.683 62.7434 199.12 60.5921 203.419 62.1573C207.719 63.7201 207.914 65.284 207.914 62.3527C207.914 59.4201 209.674 56.8806 207.524 56.8806C205.374 56.8806 202.247 56.6853 203.81 55.1213C205.374 53.5586 203.614 53.7539 206.936 53.7539C210.259 53.7539 208.305 56.2933 210.649 52.5806C212.996 48.8679 208.695 50.4319 212.996 48.8679C217.295 47.3052 217.49 50.2365 217.295 47.3052C217.099 44.3738 217.099 46.1331 218.663 44.1785C220.227 42.2238 218.663 41.0518 219.054 38.9018C219.446 36.753 221.204 34.017 221.399 37.3378C221.595 40.6598 219.879 42.6145 222.301 42.6145C224.722 42.6145 224.722 42.2238 227.068 43.0064C229.412 43.7878 229.412 43.9831 231.953 42.6145C234.493 41.2471 233.32 40.4645 234.493 41.2471C235.665 42.0285 234.493 42.8111 234.885 39.6831C235.277 36.5564 235.277 33.8492 237.035 35.7888C238.793 37.7285 239.184 39.4878 239.575 36.9471C239.967 34.4064 236.253 36.1657 237.817 33.4285C239.379 30.6925 239.379 30.4984 241.137 31.6704C242.897 32.8425 247.978 32.2101 244.656 30.3769C241.334 28.5437 241.334 27.3717 239.771 28.9344C238.209 30.4984 238.209 33.0391 236.645 31.6704C235.082 30.3018 236.645 29.6268 234.691 28.2044C232.736 26.7831 232.15 26.003 233.518 24.6356C234.886 23.267 236.057 24.4403 236.253 22.0937C236.448 19.7496 239.771 20.7263 238.011 18.5763C236.253 16.4263 236.253 16.6217 234.493 18.5763C232.735 20.531 233.712 19.5543 232.735 21.5077C231.759 23.4623 230.585 22.0937 229.412 25.417C228.24 28.7391 229.412 26.7381 230.39 30.3769C231.367 34.0158 230.975 33.4285 229.803 34.6018C228.631 35.7738 231.367 34.7971 229.607 37.9238C227.849 41.0505 226.871 42.6132 225.698 40.4632C224.526 38.3145 221.832 38.7039 222.301 35.9692C222.768 33.2331 225.351 31.2785 222.301 32.6471C219.25 34.0145 221.204 34.4052 218.664 34.9925C216.124 35.5785 216.514 39.0959 216.124 34.2098C215.733 29.3251 214.756 30.8878 215.733 27.9564C216.711 25.0238 216.319 25.5635 218.664 23.6314C221.01 21.7018 221.834 22.4844 222.301 19.9424C222.768 17.403 221.399 19.553 224.526 16.231C227.653 12.9077 228.239 13.495 227.457 11.345C226.676 9.1962 227.067 10.1729 231.953 6.65427C236.839 3.13563 235.47 0.791542 237.815 3.13563C240.161 5.48097 239.77 5.48098 241.919 5.87291C244.069 6.26234 239.769 5.67631 245.241 7.24029C250.713 8.80427 248.563 6.45768 251.69 8.99961C254.815 11.539 256.574 10.1717 255.598 13.103C254.621 16.0356 255.206 16.817 251.884 16.0356C248.563 15.253 247.976 14.081 246.999 15.0577C246.023 16.0356 241.722 13.103 244.849 15.6437C247.976 18.1831 247.976 17.5984 248.952 19.553C249.929 21.5064 251.102 23.0704 251.69 21.7018C252.276 20.3344 253.644 22.6797 252.276 20.3344C250.908 17.9903 250.713 18.3797 253.448 18.7704C256.185 19.1623 255.179 20.0965 255.206 17.2064C255.234 14.3164 255.793 12.3217 256.965 13.8844C258.137 15.4471 258.882 17.9891 259.194 15.2518C259.506 12.517 258.136 12.7123 258.136 11.1484C258.136 9.58564 255.204 7.63098 257.745 8.41234C260.285 9.19371 261.848 8.217 261.067 9.97507C260.285 11.7331 257.954 15.4471 261.269 12.7111C264.585 9.97507 263.411 15.4471 263.998 12.7111C264.586 9.97507 265.561 8.80176 266.149 8.41108C266.735 8.01915 266.106 8.01916 266.735 8.01916C272.011 7.04246 269.61 6.75945 270.586 6.75945C271.564 6.75945 270.448 6.06574 274.16 6.65176C277.874 7.23779 277.874 5.47221 276.896 4.59568C276.408 4.15741 275.724 5.33071 275.431 4.84361C275.138 4.35526 274.062 3.44367 273.379 3.42739C272.01 3.39484 272.01 1.57041 269.275 1.37507C266.538 1.17973 264.586 1.76699 264.39 -1.36097C264.195 -4.48767 265.367 -7.02834 265.953 -10.5457C266.539 -14.0644 265.367 -16.6038 268.493 -17.5818C271.621 -18.5585 271.425 -18.3631 273.183 -19.9258C274.941 -21.4898 276.702 -22.0758 276.311 -19.9258C275.919 -17.7771 276.311 -17.5818 273.771 -15.2352C271.23 -12.8898 272.597 -16.0165 270.839 -12.1085C269.08 -8.19914 266.539 -9.95846 267.322 -5.8538C268.103 -1.75039 267.646 -2.78469 270.448 -0.383004C273.25 2.01994 275.666 4.89245 278.46 3.72166C279.975 3.0868 279.437 3.71415 281.587 4.59694C281.587 4.59694 281.295 4.8937 282.173 5.23555C283.053 5.57739 282.809 5.43089 283.786 6.26109C284.762 7.09129 284.762 8.75294 285.641 7.19021C286.522 5.62624 286.766 5.72389 285.934 5.08904C285.104 4.45418 284.86 3.28088 284.127 3.28088C283.395 3.28088 282.368 3.5739 282.319 1.9135C282.27 0.253106 282.319 0.887955 281.635 -0.0900005C280.952 -1.0667 280.708 -0.481919 281.344 -1.99581C281.977 -3.5097 282.124 -3.90164 281.832 -4.68175C281.539 -5.46311 280.073 -5.75612 281.783 -6.78291C283.494 -7.80845 283.005 -8.54223 284.519 -7.46661C286.034 -6.39223 286.376 -8.93291 286.034 -6.39223C285.693 -3.85155 285.199 -4.04688 286.446 -2.43532C287.695 -0.822511 286.866 -1.99581 287.89 -0.285329C288.916 1.42515 288.037 1.22981 288.867 2.59844C289.698 3.96583 289.892 3.28089 290.576 4.7472C291.261 6.21225 290.918 5.96934 290.968 7.58215C291.017 9.19497 290.332 9.82856 289.503 10.1228C288.672 10.4158 288.331 10.9543 288.769 11.2949C289.21 11.6367 290.125 12.517 291.011 11.7832C291.897 11.0507 292.288 12.4181 292.532 10.1704C292.775 7.92398 292.677 8.70536 292.532 7.23905C292.384 5.774 291.511 4.7472 292.68 4.21127C293.851 3.67283 293.265 1.81583 294.534 3.96708C295.804 6.11708 295.999 7.58214 296.292 6.55535C296.585 5.52981 296.782 6.06699 296.097 4.55185C295.413 3.03796 294.926 3.37981 294.241 2.69612C293.558 2.01242 292.921 1.57291 292.384 2.40436C291.848 3.23455 292.434 4.26134 290.968 3.33222C289.503 2.40435 289.356 2.55087 289.649 0.889224C289.941 -0.772425 289.941 -0.772428 289.16 -1.50496C288.379 -2.23874 287.498 -2.09222 287.498 -3.1666C287.498 -4.24097 287.988 -3.55853 288.134 -5.02359C288.281 -6.48865 288.33 -9.17583 289.111 -6.53748C289.892 -3.90038 289.062 -3.21545 291.066 -3.45962C293.069 -3.7038 292.288 -3.45963 292.873 -2.87235C293.46 -2.28633 293.509 -3.60612 292.189 -4.14206C290.869 -4.6805 289.452 -5.07118 290.967 -5.46186C292.482 -5.85254 289.012 -6.6339 291.162 -7.51418C293.312 -8.39322 293.849 -8.44206 294.24 -7.22118C294.632 -5.99905 296.536 -7.46536 296.878 -5.41303C297.22 -3.3607 296.634 -2.82352 298.148 -1.84681C299.663 -0.868859 300.982 0.840378 300.005 -1.7003C299.027 -4.23973 299.174 -3.9968 298.783 -5.31535C298.391 -6.6339 299.515 -5.9502 297.463 -6.73157C295.411 -7.51293 296.877 -7.17235 295.167 -8.19664C293.457 -9.22218 293.065 -7.85478 293.262 -10.0048C293.457 -12.1548 291.942 -12.4478 294.141 -12.5943C296.34 -12.7396 295.119 -11.714 296.34 -12.7396C297.561 -13.7663 297.171 -14.0594 298.002 -13.2767L299.376 -12.9937Z" fill="#EC8C6F" fill-opacity="0.05"/>
<path d="M390.931 28.6324C392.084 30.2402 391.421 28.73 392.593 30.6847C393.766 32.6394 393.961 32.3463 394.352 33.7137C394.742 35.0824 395.623 35.5707 396.501 36.744C397.381 37.9161 396.99 39.2834 397.088 40.0661C397.186 40.8474 398.749 40.9451 398.749 41.7277C398.749 42.5091 396.306 40.6521 396.306 41.7277C396.306 42.5341 396.141 43.2303 396.512 44.0217C396.636 44.2859 396.819 44.5602 397.088 44.8544C398.163 46.0265 399.335 46.5161 399.433 47.1985C399.53 47.8822 397.967 45.8311 397.869 46.7101C397.773 47.5892 396.696 46.8091 397.967 49.2508C399.238 51.6938 399.238 51.0089 400.997 52.2799C402.755 53.5508 404.416 53.1602 403.733 54.3322C403.049 55.5055 401.485 54.5275 401.582 55.9938C401.68 57.4589 400.41 58.3392 399.922 56.6775C399.433 55.0159 398.066 53.9415 398.847 56.0915C399.629 58.2415 399.239 58.5345 400.314 59.6089C401.387 60.6845 401.583 61.074 401.486 62.0519C401.388 63.0286 400.314 62.6379 400.999 64.7879C401.681 66.9379 401.583 66.3519 401.486 68.4043C401.388 70.4566 401.388 70.8473 400.314 71.2367C399.239 71.6286 399.629 72.7018 397.871 73.5833C396.111 74.4623 397.382 73.2903 395.916 73.5833C394.45 73.8763 393.571 72.5089 392.983 74.853C392.399 77.1983 392.203 76.3193 390.931 77.9797C389.661 79.6413 387.513 81.596 387.902 77.9797C388.294 74.3659 387.122 73.1287 389.077 73.0135C391.03 72.8996 391.128 70.4566 392.301 70.4566C393.473 70.4566 393.961 72.0206 394.645 70.5542C395.33 69.0892 393.779 68.5996 395.872 68.1112C397.967 67.6229 398.162 69.2845 398.26 67.0369C398.358 64.7892 397.673 65.2788 398.749 63.9102C399.823 62.5415 398.846 62.4438 398.749 61.1729C398.651 59.9032 397.381 58.9252 397.186 56.9718C396.99 55.0171 399.238 54.4311 397.869 52.7695C396.501 51.1078 396.305 51.1078 396.403 48.1765C396.501 45.2451 395.33 43.6811 394.743 40.9463C394.157 38.2103 395.036 38.6023 393.766 37.1347C392.496 35.6697 392.789 34.3987 392.008 33.2266C391.225 32.0533 391.518 32.3464 390.542 30.587C389.564 28.8277 390.44 27.9474 390.931 28.6324Z" fill="#EC8C6F" fill-opacity="0.05"/>
<path d="M270.843 157.123C271.649 158.109 269.279 158.002 269.083 161.13C268.888 164.256 268.203 165.233 270.843 165.527C273.481 165.82 274.945 165.624 275.141 163.964C275.337 162.302 271.917 163.084 275.141 159.957C278.367 156.83 277.682 156.733 278.269 154.389C278.855 152.043 280.516 151.358 279.832 149.6C279.148 147.842 279.637 142.566 277.877 145.985C276.119 149.404 277.485 151.554 274.945 151.554C272.405 151.554 270.158 152.728 270.353 154.291C270.548 155.854 269.964 156.049 270.843 157.123Z" fill="#EC8C6F" fill-opacity="0.05"/>
<path d="M390.541 152.239C391.713 152.923 392.264 151.485 392.253 151.359C392.179 150.466 390.993 149.686 393.472 148.232C396.306 146.572 395.329 146.962 397.773 146.572C400.215 146.18 400.802 145.301 402.17 146.572C403.538 147.843 403.244 146.495 401.877 148.831C400.509 151.163 399.336 151.36 401.387 152.533C403.441 153.705 403.244 152.825 404.222 154.487C405.199 156.148 405.004 157.615 406.372 155.954C407.741 154.293 408.815 156.441 409.011 153.705C409.206 150.968 408.326 150.579 409.011 149.405C409.694 148.233 409.694 143.152 410.866 145.009C412.038 146.865 410.866 148.232 412.234 149.796C413.602 151.359 414.483 149.698 414.19 151.848C413.897 153.998 412.836 154.194 414.246 156.245C415.655 158.298 414.777 158.396 416.534 159.373C418.292 160.349 418.488 159.665 418.488 161.815C418.488 163.966 417.513 163.183 419.564 165.137C421.615 167.09 422.006 164.453 422.202 168.166C422.398 171.88 422.594 171.88 422.202 174.323C421.81 176.764 422.398 175.202 420.834 178.425C419.271 181.649 417.902 180.282 417.805 183.506C417.707 186.732 417.707 186.144 416.144 187.708C414.581 189.271 415.069 190.64 413.799 191.812C412.528 192.985 412.822 191.812 410.575 193.473C408.327 195.134 407.767 195.525 407.167 194.059C406.568 192.593 407.545 191.714 405.493 192.789C403.441 193.863 405.101 194.351 402.952 193.376C400.804 192.398 400.119 194.059 400.119 191.714C400.119 189.369 401.193 188.685 400.021 187.904C398.848 187.121 399.142 184.385 399.142 183.214C399.142 182.04 398.165 180.965 397.579 182.822C396.992 184.678 394.355 188.782 394.355 185.265C394.355 181.748 393.67 181.942 392.985 180.965C392.303 179.99 391.227 177.936 388.785 178.913C386.342 179.891 388.198 180.423 385.169 180.254C382.14 180.085 380.675 180.183 379.892 181.161C379.111 182.137 379.697 183.7 377.84 182.822C375.984 181.942 374.811 181.258 373.346 182.822C371.879 184.385 372.954 186.143 370.219 184.678C367.482 183.213 365.04 184.483 366.603 182.235C368.167 179.989 368.557 180.183 368.362 178.716C368.167 177.251 366.603 177.056 367.091 175.199C367.579 173.342 367.775 171.975 367.775 171.486C367.775 170.997 368.068 172.576 367.677 169.783C367.285 166.991 366.992 167.577 367.58 165.819C368.167 164.061 368.362 163.179 369.435 162.3C370.51 161.421 369.533 160.738 372.757 160.248C375.982 159.758 375.786 160.541 377.74 158.685C379.694 156.828 378.327 156.047 380.477 155.949C382.626 155.85 382.432 156.729 383.016 154.677C383.604 152.625 382.723 151.062 383.897 152.138C385.069 153.212 384.188 154.092 385.557 152.138C387.122 147.841 389.369 151.554 390.541 152.239Z" fill="#EC8C6F" fill-opacity="0.05"/>
<path d="M344.125 121.68C341.95 122.923 342.44 121.753 346.326 124.537C350.209 127.322 349.33 125.929 350.135 128.642C350.942 131.353 350.942 131.132 352.335 133.038C353.726 134.943 354.973 135.969 356.219 136.776C357.465 137.581 359.517 139.487 359.517 136.409C359.517 133.331 358.051 133.698 357.539 132.011C357.025 130.326 356.146 131.353 354.828 129.153C353.507 126.955 354.754 126.442 351.823 125.123C348.891 123.802 347.792 122.19 346.987 121.678C346.179 121.166 344.639 121.385 344.125 121.68Z" fill="#EC8C6F" fill-opacity="0.05"/>
<path d="M359.518 138.756C358.99 139.208 359.885 137.962 361.35 138.103C362.817 138.242 361.35 138.463 363.183 138.756C365.015 139.049 365.452 139.195 366.114 138.756C366.773 138.315 364.649 137.552 367.068 138.557C369.486 139.562 369.412 138.609 370.292 139.562C371.171 140.515 372.929 142.42 370.732 141.834C368.533 141.246 368.018 140.514 366.114 140.879C364.209 141.246 364.061 140.953 362.377 140.734C360.69 140.514 360.033 140.074 359.52 139.635C359.005 139.194 360.032 138.315 359.518 138.756Z" fill="#EC8C6F" fill-opacity="0.05"/>
<path d="M372.486 133.992C373.45 134.742 374.171 133.113 374.684 131.281C375.198 129.448 373.659 129.155 375.784 128.423C377.909 127.689 375.71 127.91 375.784 126.151C375.858 124.392 374.391 124.098 376.151 122.927C377.909 121.755 377.789 121.828 376.712 120.727C375.637 119.629 375.051 117.284 373.952 119.116C372.852 120.948 372.34 122.194 370.8 123C369.26 123.805 369.921 122.707 368.527 124.906C367.136 127.105 368.088 127.324 366.695 127.324C365.303 127.324 362.298 123.515 364.204 127.398C366.109 131.283 362.885 126.886 363.179 128.278C363.471 129.669 364.424 129.23 365.158 131.063C365.89 132.895 365.744 133.336 367.429 133.555C369.115 133.775 368.542 133.408 370.329 134.506C372.119 135.605 371.827 133.48 372.486 133.992Z" fill="#EC8C6F" fill-opacity="0.05"/>
<path d="M396.013 130.035C394.699 126.535 397.772 129.081 399.53 131.574C401.288 134.066 399.897 135.532 401.95 133.847C404.002 132.159 404.148 130.769 406.273 132.197C408.398 133.627 408.546 133.7 409.937 133.847C411.33 133.992 411.843 133.021 412.942 134.569C414.042 136.117 414.335 135.384 415.433 136.117C416.532 136.851 416.387 137.142 417.413 138.462C418.437 139.782 417.046 140.587 419.098 141.54C421.15 142.493 422.688 142.713 421.59 143.665C420.489 144.618 421.077 145.424 419.024 143.665C416.972 141.907 415.287 140.367 414.261 140.441C413.234 140.514 413.162 141.54 411.769 141.943C410.377 142.345 408.033 142.638 407.371 141.32C406.713 140 404.147 141.76 404.22 140.441C404.294 139.122 406.491 138.829 404.44 137.728C402.388 136.63 403.048 135.017 400.776 135.457C398.502 135.896 397.478 134.87 397.478 133.918C397.478 132.964 396.158 131.426 395.646 131.352C395.133 131.281 396.231 130.62 396.013 130.035Z" fill="#EC8C6F" fill-opacity="0.05"/>
<path d="M379.082 101.453C377.715 101.282 376.286 102.551 377.5 104.898C378.716 107.242 374.869 108.342 378.111 109.808C381.353 111.274 382.085 110.394 381.353 109.148C380.62 107.902 378.935 108.781 380.474 106.656C382.013 104.531 382.168 104.164 381.613 102.846C381.06 101.526 380.986 99.8417 380.327 100.574C379.667 101.307 379.667 101.526 379.082 101.453Z" fill="#EC8C6F" fill-opacity="0.05"/>
<path d="M378.498 131.352C379.152 132.222 377.021 131.132 377.503 133.551C377.985 135.969 377.324 136.775 378.498 137.434C379.67 138.094 380.037 137.142 379.743 135.895C379.451 134.649 378.469 132.524 379.84 133.331C381.209 134.136 380.11 133.551 380.989 135.309C381.869 137.067 383.114 138.314 383.114 137.067C383.114 135.821 382.526 135.382 382.381 133.624C382.235 131.864 381.649 130.765 383.114 131.132C384.58 131.499 384.286 129.732 383.407 129.736C382.526 129.739 382.893 130.473 381.428 130.545C379.962 130.618 380.841 131.278 379.962 130.618C379.084 129.96 375.94 128.641 379.343 128.86C382.747 129.079 384.873 128.86 384.139 127.981C383.407 127.102 382.893 125.426 381.575 126.63C380.255 127.835 379.45 127.761 378.79 127.761C378.13 127.761 375.793 126.237 376.778 128.318C377.762 130.399 377.838 130.473 378.498 131.352Z" fill="#EC8C6F" fill-opacity="0.05"/>
<path d="M190.033 22.1835C190.206 23.914 188.567 23.6485 187.004 23.3555C185.44 23.0638 186.32 23.1602 184.757 22.1835C183.193 21.2068 182.804 20.7172 182.804 19.5451C182.804 18.3718 181.729 13.9754 183.584 15.7335C185.441 17.4928 185.05 18.1752 187.2 17.3951C189.35 16.6125 189.838 15.1475 191.402 16.1254C192.965 17.1021 193.941 18.2516 192.867 19.3874C191.791 20.5218 189.934 21.2068 190.033 22.1835Z" fill="#EC8C6F" fill-opacity="0.05"/>
<path d="M199.901 41.7267C199.266 40.4532 199.412 43.1917 198.143 43.3883C196.872 43.5824 196.676 43.779 196.969 45.7324C197.262 47.6871 195.071 48.1754 196.85 48.7614C198.63 49.3487 198.63 48.4697 199.901 47.5894C201.172 46.7104 200.39 45.9278 201.367 44.4627C202.344 42.9976 202.931 41.922 202.148 41.7267C201.367 41.5313 200.291 42.5068 199.901 41.7267Z" fill="#EC8C6F" fill-opacity="0.05"/>
<path d="M203.03 35.9611C201.11 35.8121 201.115 39.4785 202.511 40.2611C203.907 41.0425 203.419 39.7728 204.397 42.0192C205.374 44.2669 207.817 44.6087 205.862 45.1709C203.907 45.7319 203.271 44.7564 204.224 46.7098C205.177 48.6645 206.643 48.066 205.764 48.9513C204.885 49.8366 203.614 49.5435 203.321 50.8133C203.028 52.0842 203.321 51.4005 204.69 50.8133C206.057 50.2285 205.275 50.0319 207.132 50.2285C208.988 50.4238 208.988 50.5203 209.672 49.7389C210.356 48.9563 211.528 48.0785 211.432 47.2959C211.334 46.5145 212.408 48.5668 210.942 46.2215C209.477 43.8762 209.183 42.8018 208.206 42.4111C207.228 42.0192 206.545 42.1181 206.252 40.4565C205.959 38.7948 206.838 38.21 206.252 37.4274C205.665 36.646 205.958 33.617 204.493 34.7903C203.03 35.9611 204.299 36.0575 203.03 35.9611Z" fill="#EC8C6F" fill-opacity="0.05"/>
<path d="M384.282 115.303C382.986 114.83 379.92 117.061 381.906 117.843C383.894 118.625 384.382 116.867 384.773 117.843C385.162 118.819 382.232 118.136 384.773 119.797C387.314 121.458 388.491 121.653 387.852 120.286C387.216 118.917 387.219 117.479 387.852 118.247C388.486 119.015 389.56 119.629 388.876 118.247C388.191 116.866 388.099 116.965 387.852 115.79C387.607 114.618 387.898 114.815 386.923 115.302C385.946 115.791 385.357 115.693 384.282 115.303Z" fill="#EC8C6F" fill-opacity="0.05"/>
<path d="M75.037 26.2938C74.2775 27.2991 73.5836 28.2372 72.9387 29.1249L71.262 28.6732C71.4881 28.3935 71.686 28.1347 71.8217 27.9632C71.9215 27.8359 71.935 27.6799 71.8514 27.6168L71.109 27.0559C71.0262 26.9933 70.879 27.0484 70.7839 27.1792C70.5958 27.438 70.2551 27.8629 69.9348 28.3178L68.8038 28.0146C69.0646 27.6954 69.2963 27.3952 69.4474 27.2017C69.5472 27.0745 69.56 26.9194 69.4764 26.8562L68.734 26.2954C68.6511 26.2328 68.5055 26.2875 68.4103 26.4183C68.2068 26.6975 67.8317 27.168 67.4909 27.6614L66.6842 27.4456L64.0829 26.7474C63.945 26.6942 63.7742 26.7547 63.6697 26.893L62.7644 28.0913C62.6305 28.2686 62.6542 28.5053 62.8175 28.5994L70.2547 32.9378C68.7842 35.1102 67.7469 36.8065 67.0173 38.1201L63.7654 37.9597C63.7079 37.9513 63.6201 38.0074 63.5514 38.0984L62.9602 38.8809C62.8726 38.9969 62.8508 39.1233 62.9123 39.1523L65.8143 40.5282C65.6241 40.9749 65.4999 41.3214 65.4214 41.5828C64.7302 42.4311 64.2114 43.2041 64.4481 43.383C64.6865 43.563 65.2902 42.8484 65.9179 41.9492C66.1472 41.8017 66.445 41.5878 66.8199 41.2849L68.0335 42.6682L68.9437 43.7072C68.9884 43.7585 69.104 43.7029 69.1917 43.5869L69.7828 42.8044C69.8515 42.7134 69.8822 42.6127 69.8577 42.5607L68.8102 39.4643C69.8751 38.4041 71.2242 36.9433 72.9091 34.9387L76.3627 38.2606L79.119 40.9114C79.2542 41.0427 79.4883 41.0009 79.623 40.8227L80.5282 39.6244C80.632 39.487 80.6435 39.3061 80.5554 39.1871L78.7448 36.1601C79.1255 35.6969 79.4747 35.2069 79.6885 34.9354C79.7883 34.8081 79.8011 34.6531 79.7182 34.5905L78.9758 34.0296C78.893 33.9671 78.7466 34.0212 78.6522 34.1526C78.5074 34.3508 78.2819 34.6558 78.0462 34.9938L77.4454 33.9888C77.7954 33.5563 78.1096 33.1128 78.3078 32.8602C78.4076 32.7329 78.4211 32.5769 78.3383 32.5143L77.5959 31.9535C77.5131 31.8909 77.3659 31.946 77.2708 32.0768C77.1421 32.2536 76.9481 32.5153 76.7408 32.8092L75.8455 31.3149C76.533 30.439 77.2555 29.5021 78.0255 28.4829C80.6648 24.9891 79.5692 23.3653 79.5692 23.3653C79.5692 23.3653 77.6757 22.8024 75.037 26.2938Z" fill="#EC8C6F" fill-opacity="0.2"/>
<path d="M19 64.5977C21.3961 63.0003 36.5715 67.9922 61.7307 46.2275" stroke="#FADDD4" stroke-width="0.399352" stroke-dasharray="1.6 1.6"/>
</g>
<defs>
<clipPath id="clip0_20_59">
<rect width="454" height="197" fill="white" transform="translate(0 -50)"/>
</clipPath>
</defs>
</svg>
