<svg width="423" height="145" viewBox="0 0 423 145" fill="none" xmlns="http://www.w3.org/2000/svg">
<path fill-rule="evenodd" clip-rule="evenodd" d="M216.076 -161.416C276.603 -165.533 337.142 -147.549 379.637 -117.626C421.681 -88.0207 438.362 -46.5332 437.994 -5.15327C437.629 35.9444 420.26 77.1341 377.65 105.953C335.347 134.565 275.402 144.177 216.076 144.942C155.38 145.724 92.4525 138.87 48.3329 110.196C3.18901 80.8562 -21.7468 37.2983 -14.87 -5.15327C-8.52409 -44.328 41.0995 -69.734 81.9581 -97.3799C122.288 -124.668 159.772 -157.587 216.076 -161.416Z" fill="#F14249" fill-opacity="0.05"/>
<rect x="145.538" y="9" width="15.8462" height="15.8462" rx="7.92308" fill="white"/>
<path d="M149.933 13.3949L157.403 20.8649" stroke="#F14249" stroke-width="1.58462" stroke-linecap="round" stroke-linejoin="round"/>
<path d="M149.933 20.8649L157.403 13.395" stroke="#F14249" stroke-width="1.58462" stroke-linecap="round" stroke-linejoin="round"/>
<rect x="288.154" y="31.1846" width="15.8462" height="15.8462" rx="7.92308" fill="white"/>
<path d="M292.55 35.5795L300.02 43.0494" stroke="#F14249" stroke-width="1.90154" stroke-linecap="round" stroke-linejoin="round"/>
<path d="M292.549 43.0495L300.019 35.5795" stroke="#F14249" stroke-width="1.90154" stroke-linecap="round" stroke-linejoin="round"/>
<rect x="269" y="104" width="19.0154" height="19.0154" rx="9.50769" fill="white"/>
<path d="M274.274 109.274L283.238 118.238" stroke="#F14249" stroke-width="1.90154" stroke-linecap="round" stroke-linejoin="round"/>
<path d="M274.273 118.238L283.237 109.274" stroke="#F14249" stroke-width="1.90154" stroke-linecap="round" stroke-linejoin="round"/>
<rect x="98" y="47.0308" width="9.50769" height="9.50769" rx="4.75385" fill="white"/>
<path d="M100.637 49.6677L105.119 54.1497" stroke="#F14249" stroke-width="1.10923" stroke-linecap="round" stroke-linejoin="round"/>
<path d="M100.637 54.1497L105.119 49.6677" stroke="#F14249" stroke-width="1.10923" stroke-linecap="round" stroke-linejoin="round"/>
<rect x="224.77" y="15.3384" width="9.50769" height="9.50769" rx="4.75385" fill="white"/>
<path d="M227.407 17.9753L231.889 22.4573" stroke="#F14249" stroke-width="1.10923" stroke-linecap="round" stroke-linejoin="round"/>
<path d="M227.406 22.4573L231.888 17.9753" stroke="#F14249" stroke-width="1.10923" stroke-linecap="round" stroke-linejoin="round"/>
<rect x="129.692" y="94.5693" width="12.6769" height="12.6769" rx="6.33846" fill="white"/>
<path d="M133.209 98.0852L139.185 104.061" stroke="#F14249" stroke-width="1.58462" stroke-linecap="round" stroke-linejoin="round"/>
<path d="M133.208 104.061L139.184 98.0852" stroke="#F14249" stroke-width="1.58462" stroke-linecap="round" stroke-linejoin="round"/>
<path d="M227.969 55.625H220.938V54.2188C220.938 51.8925 219.045 50 216.719 50H205.469C203.143 50 201.25 51.8925 201.25 54.2188V55.625H194.219C191.893 55.625 190 57.5175 190 59.8438C190 61.712 191.221 63.2995 192.907 63.8526L195.415 94.1315C195.596 96.3008 197.442 98 199.619 98H222.568C224.745 98 226.592 96.3008 226.773 94.1308L229.281 63.8525C230.966 63.2995 232.188 61.712 232.188 59.8438C232.188 57.5175 230.295 55.625 227.969 55.625ZM204.062 54.2188C204.062 53.4433 204.693 52.8125 205.469 52.8125H216.719C217.494 52.8125 218.125 53.4433 218.125 54.2188V55.625H204.062V54.2188ZM223.97 93.8981C223.909 94.6211 223.294 95.1875 222.568 95.1875H199.619C198.894 95.1875 198.278 94.6211 198.218 93.8987L195.746 64.0625H226.441L223.97 93.8981ZM227.969 61.25H194.219C193.443 61.25 192.812 60.6192 192.812 59.8438C192.812 59.0683 193.443 58.4375 194.219 58.4375H227.969C228.744 58.4375 229.375 59.0683 229.375 59.8438C229.375 60.6192 228.744 61.25 227.969 61.25Z" fill="#F14249"/>
<path d="M205.372 90.8816L203.966 68.1941C203.918 67.4189 203.247 66.8293 202.475 66.8776C201.7 66.9257 201.111 67.593 201.159 68.3681L202.565 91.0557C202.611 91.8013 203.23 92.375 203.967 92.375C204.782 92.375 205.422 91.6891 205.372 90.8816ZM211 66.875C210.223 66.875 209.594 67.5046 209.594 68.2812V90.9687C209.594 91.7454 210.223 92.375 211 92.375C211.777 92.375 212.406 91.7454 212.406 90.9687V68.2812C212.406 67.5046 211.777 66.875 211 66.875ZM219.524 66.8777C218.751 66.8296 218.082 67.419 218.034 68.1942L216.628 90.8817C216.58 91.6569 217.169 92.3242 217.944 92.3723C218.72 92.4203 219.387 91.8306 219.435 91.0557L220.841 68.3682C220.889 67.593 220.3 66.9257 219.524 66.8777Z" fill="#F14249"/>
</svg>
